<svg width="24" height="21" viewBox="0 0 24 21" fill="none" xmlns="http://www.w3.org/2000/svg">
<path d="M22.8 3.6H1.2C0.528 3.6 0 3.072 0 2.4V1.2C0 0.528 0.528 0 1.2 0H22.8C23.472 0 24 0.528 24 1.2V2.4C24 3.072 23.472 3.6 22.8 3.6Z" fill="white"/>
<path d="M22.8 12H4.8C4.128 12 3.6 11.472 3.6 10.8V9.6C3.6 8.928 4.128 8.4 4.8 8.4H22.8C23.472 8.4 24 8.928 24 9.6V10.8C24 11.472 23.472 12 22.8 12Z" fill="white"/>
<path d="M22.8 20.4H8.4C7.728 20.4 7.2 19.872 7.2 19.2V18C7.2 17.328 7.728 16.8 8.4 16.8H22.8C23.472 16.8 24 17.328 24 18V19.2C24 19.872 23.472 20.4 22.8 20.4Z" fill="white"/>
</svg>
