<svg xmlns="http://www.w3.org/2000/svg" xmlns:xlink="http://www.w3.org/1999/xlink" viewBox="0 0 179.2846 181.17967"><defs><linearGradient id="a" x1="169.47043" y1="180.54283" x2="169.47043" y2="2.35505" gradientUnits="userSpaceOnUse"><stop offset="0" stop-color="#ba181d"/><stop offset="0.25" stop-color="#e8283f"/><stop offset="1" stop-color="#ff4063"/></linearGradient><linearGradient id="b" x1="9.81429" y1="180.54283" x2="9.81429" y2="2.35505" xlink:href="#a"/><linearGradient id="c" x1="70.64684" y1="180.54283" x2="70.64684" y2="2.35505" xlink:href="#a"/><linearGradient id="d" x1="89.64229" y1="7.44211" x2="89.64229" y2="170.42244" gradientUnits="userSpaceOnUse"><stop offset="0.1323" stop-color="#fe0178"/><stop offset="0.63633" stop-color="#ff0057"/><stop offset="0.97344" stop-color="#ff003e"/></linearGradient></defs><polygon points="89.454 181.18 89.831 181.18 89.647 181.18 89.454 181.18" fill="none"/><path d="M170.55815,142.58378q-.98471,1.57958-2.17544,3.13116Q169.57514,144.16367,170.55815,142.58378Z" fill="url(#a)"/><path d="M10.902,145.71494q-1.19244-1.55127-2.17544-3.13116Q9.71127,144.16355,10.902,145.71494Z" fill="url(#b)"/><path d="M75.65493,177.60063q-5.29536-.48094-10.01618-1.35737Q70.35908,177.11982,75.65493,177.60063Z" fill="url(#c)"/><path d="M179.10242,120.82668c-2.65182-30.09406-4.864-51.31237-15.78478-82.80476a40.99014,40.99014,0,0,0-9.8298-15.74953c-8.73168-8.59339-19.8829-14.867-33.14407-18.64649C112.14016,1.28765,101.23677,0,89.64236,0,78.04789,0,67.14449,1.28765,58.94088,3.6259,45.67971,7.40538,34.52843,13.679,25.79681,22.27239a40.991,40.991,0,0,0-9.82973,15.74953C5.04628,69.51418,2.834,90.73236.18217,120.82668a39.399,39.399,0,0,0,17.29412,36.48375,176.58105,176.58105,0,0,0,34.79844,18.521l.11049.04572.11261.04019c9.79905,3.49185,22.2329,5.2623,36.95609,5.2623l.19338-.00013.18343.00013c14.72319,0,27.157-1.77045,36.956-5.2623l.11267-.04019.11043-.04572a176.57409,176.57409,0,0,0,34.79844-18.521,38.84537,38.84537,0,0,0,17.29412-36.48375Zm-3.402,4.696q-.0154.7427-.061,1.48411a31.46947,31.46947,0,0,1-.90269,5.86144q-.21177.82821-.46695,1.65077a33.76915,33.76915,0,0,1-1.20148,3.2647,35.29214,35.29214,0,0,1-2.51013,4.8q-.98471,1.57977-2.17544,3.13116-.84681,1.1017-1.78753,2.122a36.5442,36.5442,0,0,1-6.30983,5.40727q-2.33315,1.59248-4.63664,3.11215c-6.14156,4.04965-12.11631,7.69019-17.87432,10.79862q-2.15923,1.16547-4.27705,2.2295-4.23486,2.126-8.29151,3.8144-14.04071,5.00337-35.3751,4.98906l-.18837-.00013-.18844.00013q-5.32791,0-10.20506-.31049-1.82881-.11652-3.59393-.27684-5.29536-.48094-10.01618-1.35737a75.578,75.578,0,0,1-11.55993-3.04436q-4.05353-1.68089-8.29151-3.8144-2.11743-1.063-4.277-2.2295c-5.758-3.10843-11.73283-6.749-17.87432-10.79862q-2.30312-1.51871-4.63665-3.11215a36.542,36.542,0,0,1-6.30983-5.40727q-.93886-1.02044-1.78746-2.122-1.19244-1.55127-2.17544-3.13116a35.29825,35.29825,0,0,1-2.51019-4.8,33.77249,33.77249,0,0,1-1.20156-3.2647q-.25539-.82243-.46694-1.65077a31.46852,31.46852,0,0,1-.90262-5.86144q-.04584-.74115-.061-1.48411-.01541-.74308-.002-1.4868.0132-.74366.05361-1.48706.04016-.74308.10574-1.48488c.31209-3.54193.63336-6.97188.97832-10.32506.345-3.353.71355-6.6293,1.12034-9.864q.30509-2.42589.64061-4.82508.33648-2.401.70873-4.78874A286.81449,286.81449,0,0,1,20.417,39.56509q.34043-.98172.73242-1.94264A37.68569,37.68569,0,0,1,22.921,33.8797a34.959,34.959,0,0,1,6.1795-8.25055,63.91336,63.91336,0,0,1,6.49107-5.58177,67.14878,67.14878,0,0,1,7.341-4.7836,74.15123,74.15123,0,0,1,8.20773-3.96926,85.42341,85.42341,0,0,1,9.09159-3.13925q.7555-.21534,1.54112-.41719,1.57053-.4039,3.2509-.75361,1.6779-.35016,3.45012-.64613,1.76986-.296,3.61884-.53828,1.84653-.2423,3.75681-.43067,1.90779-.18837,3.8641-.32307,1.95381-.13443,3.94082-.2152,1.98444-.08089,3.98672-.10774.99993-.01347,2.00107-.01348,1.00089,0,2.00106.01348,1.99975.02677,3.98673.10774,1.98444.0805,3.94075.2152,1.95372.13464,3.8641.32307,1.90778.18837,3.75681.43067,1.84644.2423,3.61884.53828,1.76977.29622,3.45019.64613,1.67779.34977,3.25089.75361.78527.20186,1.54112.41719a85.42713,85.42713,0,0,1,9.09154,3.13925,74.15808,74.15808,0,0,1,8.20778,3.96926,67.15192,67.15192,0,0,1,7.34086,4.7836,63.91988,63.91988,0,0,1,6.49107,5.58177,34.95757,34.95757,0,0,1,6.17956,8.25055,37.68121,37.68121,0,0,1,1.77161,3.74275q.39186.96054.73242,1.94264A286.813,286.813,0,0,1,172.095,91.26114q.37326,2.38988.70873,4.78874.33639,2.40142.64061,4.82508c.40679,3.23465.77544,6.51091,1.12034,9.864.345,3.35318.66623,6.78313.97831,10.32506q.0654.74154.10575,1.48488.04005.74308.05361,1.48706Q175.71551,124.77957,175.70039,125.52271Z" fill="#f7f7f7"/><path d="M130.19392,39.54134c-8.5729-3.28178-22.91023,1.58837-33.38713,1.91452-2.13532.15794-13.36961.15794-15.50492,0-10.4769-.32615-24.81424-5.1963-33.38714-1.91452A34.47661,34.47661,0,0,0,27.09448,63.59907c-3.88542,19.726,6.71045,43.38656,31.87234,47.833a168.942,168.942,0,0,0,30.08783,2.29486,168.94276,168.94276,0,0,0,30.08789-2.29486c25.15573-4.44538,35.75243-28.09556,31.875-47.81872C147.9598,51.84153,139.99374,43.29514,130.19392,39.54134ZM48.94923,85.50987a1.05675,1.05675,0,0,1-1.24143.81768c-.04879-.00924-4.99752-.96663-7.96471,2.1079a1.05195,1.05195,0,1,1-1.51415-1.46073c3.77973-3.92,9.65452-2.7602,9.90311-2.70781A1.05234,1.05234,0,0,1,48.94923,85.50987Zm-.02774-5.02835a1.045,1.045,0,0,1-1.31949.6862c-1.93224-.60813-7.51889-1.81719-10.13425-.12019a1.05195,1.05195,0,1,1-1.14537-1.7648c3.98312-2.58454,11.5919-.22291,11.91394-.12018A1.05042,1.05042,0,0,1,48.92149,80.48152Zm3.56915-2.78074a1.05122,1.05122,0,0,1-1.4592.2866c-.0493-.03287-4.865-3.22348-9.8687-3.22348-.09913,0-.19775.001-.29688.00411a1.06443,1.06443,0,0,1-1.0786-1.02519,1.05241,1.05241,0,0,1,1.02416-1.0786c5.83524-.14895,11.16817,3.42482,11.39416,3.57788A1.05059,1.05059,0,0,1,52.49064,77.70078Zm17.9755-7.43928a.17231.17231,0,0,1-.10619-.01528l-.01528-.00758c-1.72744-.85607-3.15511-1.65347-4.6048-2.27315-.36422-.14163-.7079-.31883-1.05536-.47626-.355-.13623-.69108-.32576-1.03957-.49076l-1.07617-.451c-.37378-.10478-.75778-.18529-1.14486-.27389a8.93819,8.93819,0,0,0-1.187-.1067c-.20019-.00912-.4021-.03506-.604-.03185l-.60659.05432a10.99489,10.99489,0,0,0-1.23192.11145l-1.23134.26516a22.85473,22.85473,0,0,0-2.45973.77878l-2.39321,1.12547-.01509.00706a.15781.15781,0,0,1-.16885-.26349c.6844-.57679,1.37708-1.169,2.10764-1.72075a24.19487,24.19487,0,0,1,2.38891-1.40951A12.93388,12.93388,0,0,1,61.603,63.75547a9.22234,9.22234,0,0,1,5.7462,1.49553,13.991,13.991,0,0,1,1.13542.96946,9.441,9.441,0,0,1,.94044,1.14268,6.60259,6.60259,0,0,1,1.1812,2.69895A.17232.17232,0,0,1,70.46614,70.2615Zm34.63928,17.56274c-2.17461,1.39346-9.17455,5.082-14.63344-.76966a2.09615,2.09615,0,0,0-2.719-.11993,9.42721,9.42721,0,0,1-7.1894,3.32621,14.81547,14.81547,0,0,1-7.55536-2.43662,1.05148,1.05148,0,1,1,1.13408-1.771c7.3458,4.70374,11.51023.63073,13.33821-2.21576a3.40633,3.40633,0,0,0,.52441-1.848V79.67c0-.02157.01091-.03929.01219-.0606-2.74023-.30253-4.82148-1.77431-4.82148-3.54848,0-1.993,2.62415-3.60857,5.86118-3.60857S94.918,74.06794,94.918,76.06092c0,1.77417-2.08125,3.246-4.82148,3.54848.00128.02131.0122.039.0122.0606v2.31951a3.4003,3.4003,0,0,0,.5244,1.847c1.82849,2.84649,5.99036,6.91847,13.33822,2.21679a1.05148,1.05148,0,1,1,1.13407,1.771ZM121.55052,66.566l-1.23127-.26516a10.99489,10.99489,0,0,0-1.23192-.11145l-.60659-.05432c-.20191-.00321-.40383.02273-.604.03185a8.93729,8.93729,0,0,0-1.187.1067c-.38714.0886-.77108.16911-1.14486.27389l-1.07617.451c-.34849.165-.68459.35453-1.03956.49076-.34747.15743-.69115.33463-1.05537.47626-1.44969.61968-2.87736,1.41708-4.60486,2.27315l-.01522.00745a.17236.17236,0,0,1-.24634-.184,6.60362,6.60362,0,0,1,1.18126-2.69895,9.441,9.441,0,0,1,.94044-1.14268,13.9927,13.9927,0,0,1,1.13542-.96946,9.22234,9.22234,0,0,1,5.7462-1.49553,12.93333,12.93333,0,0,1,5.58016,1.32809,24.18672,24.18672,0,0,1,2.389,1.40951c.73056.55175,1.42324,1.144,2.10764,1.72075a.15784.15784,0,0,1-.16872.26362l-.01522-.00719-2.39321-1.12547A22.85515,22.85515,0,0,0,121.55052,66.566Zm4.94668,11.60012a1.0519,1.0519,0,0,1-.58912-1.924c.22548-.15306,5.57381-3.72786,11.39416-3.57788a1.0524,1.0524,0,0,1,1.02416,1.0786,1.08967,1.08967,0,0,1-1.0786,1.02519c-.09862-.00308-.19775-.00411-.29688-.00411-5.0042,0-9.81939,3.19061-9.8687,3.22348A1.05116,1.05116,0,0,1,126.4972,78.16612Zm13.36082,10.296a1.05209,1.05209,0,0,1-1.48745-.02671c-2.98465-3.09508-7.91335-2.11817-7.96266-2.1079a1.05214,1.05214,0,0,1-.4263-2.06064c.24859-.05034,6.1239-1.21112,9.90312,2.70781A1.05214,1.05214,0,0,1,139.858,88.46216Zm2.243-7.72383a1.05248,1.05248,0,0,1-1.45509.3092c-2.61484-1.698-8.20252-.48794-10.13425.12019a1.05155,1.05155,0,0,1-.63432-2.00517c.322-.10273,7.93133-2.46436,11.914.12018A1.0523,1.0523,0,0,1,142.101,80.73833Z" fill="#f7f7f7"/><path d="M75.71265,26.27349l8.36123.6559a63.70305,63.70305,0,0,0,9.96154,0l8.36123-.6559s8.61-1.59441,3.50777-7.01554c-4.08181-4.337-12.41658-4.72814-15.58723-4.71119q-1.26253.00694-2.52509,0c-3.17064-.017-11.50542.37418-15.58723,4.71119C67.10257,24.67908,75.71265,26.27349,75.71265,26.27349Z" fill="#f7f7f7"/><path d="M126.41875,68.47744a.15784.15784,0,0,0,.16872-.26362c-.6844-.57679-1.37708-1.169-2.10764-1.72075a24.18672,24.18672,0,0,0-2.389-1.40951,12.93333,12.93333,0,0,0-5.58016-1.32809,9.22234,9.22234,0,0,0-5.7462,1.49553,13.9927,13.9927,0,0,0-1.13542.96946,9.441,9.441,0,0,0-.94044,1.14268,6.60362,6.60362,0,0,0-1.18126,2.69895.17236.17236,0,0,0,.24634.184l.01522-.00745c1.7275-.85607,3.15517-1.65347,4.60486-2.27315.36422-.14163.7079-.31883,1.05537-.47626.355-.13623.69107-.32576,1.03956-.49076l1.07617-.451c.37378-.10478.75772-.18529,1.14486-.27389a8.93729,8.93729,0,0,1,1.187-.1067c.20019-.00912.40211-.03506.604-.03185l.60659.05432a10.99489,10.99489,0,0,1,1.23192.11145l1.23127.26516a22.85515,22.85515,0,0,1,2.4598.77878l2.39321,1.12547Z" fill="#030813"/><path d="M68.48459,66.22046a13.991,13.991,0,0,0-1.13542-.96946,9.22234,9.22234,0,0,0-5.7462-1.49553,12.93388,12.93388,0,0,0-5.58023,1.32809,24.19487,24.19487,0,0,0-2.38891,1.40951c-.73056.55175-1.42324,1.144-2.10764,1.72075a.15781.15781,0,0,0,.16885.26349l.01509-.00706,2.39321-1.12547a22.85473,22.85473,0,0,1,2.45973-.77878l1.23134-.26516a10.99489,10.99489,0,0,1,1.23192-.11145l.60659-.05432c.20192-.00321.40383.02273.604.03185a8.93819,8.93819,0,0,1,1.187.1067c.38708.0886.77108.16911,1.14486.27389l1.07617.451c.34849.165.68459.35453,1.03957.49076.34746.15743.69114.33463,1.05536.47626,1.44969.61968,2.87736,1.41708,4.6048,2.27315l.01528.00758a.17241.17241,0,0,0,.24628-.18413,6.60259,6.60259,0,0,0-1.1812-2.69895A9.441,9.441,0,0,0,68.48459,66.22046Z" fill="#030813"/><path d="M103.97135,86.05328c-7.34786,4.70168-11.50973.6297-13.33822-2.21679a3.4003,3.4003,0,0,1-.5244-1.847V79.67c0-.02157-.01092-.03929-.0122-.0606,2.74023-.30253,4.82148-1.77431,4.82148-3.54848,0-1.993-2.62415-3.60857-5.86118-3.60857s-5.86118,1.61559-5.86118,3.60857c0,1.77417,2.08125,3.246,4.82148,3.54848-.00128.02131-.01219.039-.01219.0606v2.31951a3.40633,3.40633,0,0,1-.52441,1.848c-1.828,2.84649-5.99241,6.9195-13.33821,2.21576a1.05148,1.05148,0,1,0-1.13408,1.771,14.81547,14.81547,0,0,0,7.55536,2.43662,9.42721,9.42721,0,0,0,7.1894-3.32621,2.09615,2.09615,0,0,1,2.719.11993c5.45889,5.85168,12.45883,2.16312,14.63344.76966a1.05148,1.05148,0,1,0-1.13407-1.771Z" fill="#030813"/><path d="M137.2478,74.768a1.08967,1.08967,0,0,0,1.0786-1.02519,1.0524,1.0524,0,0,0-1.02416-1.0786c-5.82035-.15-11.16868,3.42482-11.39416,3.57788a1.05174,1.05174,0,0,0,1.17414,1.74528c.04931-.03287,4.8645-3.22348,9.8687-3.22348C137.05005,74.7639,137.14918,74.76493,137.2478,74.768Z" fill="#030813"/><path d="M129.87734,79.16255a1.05155,1.05155,0,0,0,.63432,2.00517c1.93173-.60813,7.51941-1.81822,10.13425-.12019a1.052,1.052,0,1,0,1.14538-1.7648C137.80867,76.69819,130.19938,79.05982,129.87734,79.16255Z" fill="#030813"/><path d="M129.98161,84.26691a1.05214,1.05214,0,0,0,.4263,2.06064c.04931-.01027,4.978-.98718,7.96266,2.1079a1.052,1.052,0,0,0,1.51416-1.46073C136.10551,83.05579,130.2302,84.21657,129.98161,84.26691Z" fill="#030813"/><path d="M40.81142,72.66422a1.05241,1.05241,0,0,0-1.02416,1.0786,1.06443,1.06443,0,0,0,1.0786,1.02519c.09913-.00308.19775-.00411.29688-.00411,5.00369,0,9.8194,3.19061,9.8687,3.22348a1.05174,1.05174,0,0,0,1.17414-1.74528C51.97959,76.089,46.64666,72.51527,40.81142,72.66422Z" fill="#030813"/><path d="M48.23632,79.16255c-.322-.10273-7.93082-2.46436-11.91394.12018a1.05195,1.05195,0,0,0,1.14537,1.7648c2.61536-1.697,8.202-.48794,10.13425.12019a1.05155,1.05155,0,0,0,.63432-2.00517Z" fill="#030813"/><path d="M48.13205,84.26691c-.24859-.05239-6.12338-1.21215-9.90311,2.70781a1.05195,1.05195,0,0,0,1.51415,1.46073c2.96719-3.07453,7.91592-2.11714,7.96471-2.1079a1.05193,1.05193,0,0,0,.42425-2.06064Z" fill="#030813"/><path d="M132.55138,36.50469a35.86415,35.86415,0,0,0-10.02414-2.73491,15.05384,15.05384,0,0,0-2.775.04572c-2.04921.21418-6.40491.697-8.462,1.13137a109.63533,109.63533,0,0,1-22.23592,2.32234A109.63339,109.63339,0,0,1,66.8177,34.94662a54.65614,54.65614,0,0,0-9.57061-1.24412c-4.30922,0-7.87342,1.35018-11.69091,2.80283C29.85281,42.47026,21.60792,57.488,23.35782,76.03793c1.88268,19.958,14.84171,35.83608,34.257,39.26707A175.53005,175.53005,0,0,0,89.05683,118.4c12.01853,0,21.46517-2.24,30.63484-3.8605,19.41531-3.43073,33.17706-18.5435,35.0598-38.50152C156.50132,57.488,148.25648,42.47026,132.55138,36.50469ZM119.14254,111.432a168.94276,168.94276,0,0,1-30.08789,2.29486A168.942,168.942,0,0,1,58.96682,111.432c-25.16189-4.44641-35.75776-28.107-31.87234-47.833A34.47661,34.47661,0,0,1,47.91473,39.54134c8.5729-3.28178,22.91024,1.58837,33.38714,1.91452,2.13531.15794,13.3696.15794,15.50492,0,10.4769-.32615,24.81423-5.1963,33.38713-1.91452,9.79982,3.7538,17.76588,12.30019,20.8236,24.072C154.895,83.33648,144.29827,106.98666,119.14254,111.432Z" fill="#030813"/><path d="M118.27035,120.93672a7.46176,7.46176,0,0,0-1.66644.534,4.87207,4.87207,0,0,0-2.48374,5.88506c.32127,1.01851.60812,2.038.86237,3.02407a54.265,54.265,0,0,1,1.68769,13.68067,72.82443,72.82443,0,0,1-.76253,12.01821c-1.09267,5.28323,1.74367,5.63956,1.74367,5.63956,1.98174.78019,3.93864-3.309,4.68634-5.09743.26272-.62842.5558-1.24527.85711-1.85623a38.68445,38.68445,0,0,0,2.18468-28.36431S123.318,119.91038,118.27035,120.93672Z" fill="#030813"/><path d="M144.49813,110.22812a6.16248,6.16248,0,0,0-1.37785.44171,4.0282,4.0282,0,0,0-2.05358,4.86579c.2656.84208.50277,1.68493.713,2.5003a44.86172,44.86172,0,0,1,1.39545,11.31121,60.21206,60.21206,0,0,1-.63047,9.937c-.90346,4.36809,1.44173,4.66265,1.44173,4.66265,1.63852.6451,3.25648-2.7358,3.87469-4.21452.2172-.51952.45956-1.02955.70867-1.5347a31.98446,31.98446,0,0,0,1.80634-23.45191S148.67162,109.37962,144.49813,110.22812Z" fill="#030813"/><path d="M61.50539,121.47076a7.464,7.464,0,0,0-1.66645-.534c-5.04773-1.02634-7.10921,5.46364-7.10921,5.46364a38.68468,38.68468,0,0,0,2.18475,28.36431c.30124.611.59439,1.22781.8571,1.85623.74764,1.78843,2.7046,5.87762,4.68628,5.09743,0,0,2.8364-.35633,1.74368-5.63956a72.83637,72.83637,0,0,1-.76254-12.01821,54.26464,54.26464,0,0,1,1.68776-13.68067c.25424-.986.5411-2.00556.86237-3.02407A4.87208,4.87208,0,0,0,61.50539,121.47076Z" fill="#030813"/><path d="M34.989,110.66983a6.16281,6.16281,0,0,0-1.37785-.44171c-4.17349-.8485-5.87794,4.51755-5.87794,4.51755a31.9844,31.9844,0,0,0,1.80634,23.45191c.2491.50515.4914,1.01518.70866,1.5347.61815,1.47872,2.23618,4.85962,3.87469,4.21452,0,0,2.34513-.29456,1.44167-4.66265a60.21972,60.21972,0,0,1-.63047-9.937,44.86765,44.86765,0,0,1,1.39545-11.31121c.2102-.81537.44736-1.65822.713-2.5003A4.02828,4.02828,0,0,0,34.989,110.66983Z" fill="#030813"/><path d="M175.64871,122.54885q-.04017-.74308-.10575-1.48488c-.31208-3.54193-.63335-6.97188-.97831-10.32506-.3449-3.353-.71355-6.6293-1.12034-9.864q-.30509-2.42589-.64061-4.82508-.33649-2.401-.70873-4.78874a286.813,286.813,0,0,0-13.22728-51.696q-.34043-.98172-.73242-1.94264a37.68121,37.68121,0,0,0-1.77161-3.74275,34.95757,34.95757,0,0,0-6.17956-8.25055,63.91988,63.91988,0,0,0-6.49107-5.58177,67.15192,67.15192,0,0,0-7.34086-4.7836,74.15808,74.15808,0,0,0-8.20778-3.96926,85.42713,85.42713,0,0,0-9.09154-3.13925q-.7555-.21534-1.54112-.41719-1.57052-.4039-3.25089-.75361-1.67792-.35016-3.45019-.64613-1.76986-.296-3.61884-.53828-1.84653-.2423-3.75681-.43067-1.90779-.18837-3.8641-.32307-1.95381-.13443-3.94075-.2152-1.98444-.08089-3.98673-.10774-.99992-.01347-2.00106-.01348-1.00089,0-2.00107.01348-1.99974.02677-3.98672.10774-1.98444.0805-3.94082.2152-1.95381.13464-3.8641.32307-1.90778.18837-3.75681.43067-1.84642.2423-3.61884.53828-1.76977.29622-3.45012.64613-1.67781.34977-3.2509.75361-.78525.20186-1.54112.41719a85.42341,85.42341,0,0,0-9.09159,3.13925,74.15123,74.15123,0,0,0-8.20773,3.96926,67.14878,67.14878,0,0,0-7.341,4.7836,63.91336,63.91336,0,0,0-6.49107,5.58177A34.959,34.959,0,0,0,22.921,33.8797a37.68569,37.68569,0,0,0-1.77161,3.74275q-.392.96054-.73242,1.94264A286.81449,286.81449,0,0,0,7.18962,91.26114q-.37327,2.38988-.70873,4.78874-.33639,2.40142-.64061,4.82508c-.40679,3.23465-.77538,6.51091-1.12034,9.864-.345,3.35318-.66623,6.78313-.97832,10.32506q-.06529.74154-.10574,1.48488-.04006.74308-.05361,1.48706-.01318.74365.002,1.4868.01551.7427.061,1.48411a31.46852,31.46852,0,0,0,.90262,5.86144q.21187.82821.46694,1.65077a33.77249,33.77249,0,0,0,1.20156,3.2647,35.29825,35.29825,0,0,0,2.51019,4.8q.9847,1.57958,2.17544,3.13116.8468,1.1017,1.78746,2.122a36.542,36.542,0,0,0,6.30983,5.40727q2.33316,1.59248,4.63665,3.11215c6.14149,4.04965,12.11631,7.69019,17.87432,10.79862q2.15933,1.16547,4.277,2.2295,4.23488,2.126,8.29151,3.8144a75.578,75.578,0,0,0,11.55993,3.04436q4.72033.87656,10.01618,1.35737,1.76516.16044,3.59393.27684,4.87673.31068,10.20506.31049l.18844-.00013.18837.00013q21.31359,0,35.3751-4.98906,4.05352-1.68089,8.29151-3.8144,2.11743-1.063,4.27705-2.2295c5.758-3.10843,11.73276-6.749,17.87432-10.79862q2.3031-1.51871,4.63664-3.11215a36.5442,36.5442,0,0,0,6.30983-5.40727q.93886-1.02044,1.78753-2.122,1.19242-1.55127,2.17544-3.13116a35.29214,35.29214,0,0,0,2.51013-4.8,33.76915,33.76915,0,0,0,1.20148-3.2647q.2553-.82243.46695-1.65077a31.46947,31.46947,0,0,0,.90269-5.86144q.04574-.74115.061-1.48411.0154-.74308.00193-1.4868Q175.68912,123.29225,175.64871,122.54885Zm-5.475,9.15246a29.29453,29.29453,0,0,1-3.06952,7.47832Q91.7517,202.276,11.53556,137.97609a29.06716,29.06716,0,0,1-2.42467-6.27465,30.542,30.542,0,0,1-.67753-10.224c2.584-29.32517,4.68338-50.41341,15.28181-80.97589a31.52663,31.52663,0,0,1,7.53732-12.12221A73.44766,73.44766,0,0,1,61.52285,10.70719c7.28032-2.075,17.52942-3.26508,28.11951-3.26508,10.59,0,20.83919,1.19005,28.11951,3.26508A73.44678,73.44678,0,0,1,148.0321,28.37934a31.52687,31.52687,0,0,1,7.53738,12.12221c10.59837,30.56261,12.69779,51.65072,15.28175,80.97589A30.54072,30.54072,0,0,1,170.1737,131.70131Z" fill="#030813"/><path d="M89.05465,127.08245a5.60211,5.60211,0,0,0-5.58929,5.98034l2.15169,31.7962a3.44546,3.44546,0,0,0,6.8752,0l2.15168-31.7962A5.6021,5.6021,0,0,0,89.05465,127.08245Z" fill="#030813"/><path d="M170.1737,131.70131a30.54072,30.54072,0,0,0,.67753-10.22387c-2.584-29.32517-4.68338-50.41328-15.28175-80.97589a31.52687,31.52687,0,0,0-7.53738-12.12221,73.44678,73.44678,0,0,0-30.27023-17.67215c-7.28032-2.075-17.52949-3.26508-28.11951-3.26508-10.59009,0-20.83919,1.19005-28.11951,3.26508A73.44766,73.44766,0,0,0,31.25249,28.37934a31.52663,31.52663,0,0,0-7.53732,12.12221C13.11674,71.064,11.01738,92.15227,8.43336,121.47744a30.542,30.542,0,0,0,.67753,10.224,29.06716,29.06716,0,0,0,2.42467,6.27465q80.11095,64.27031,155.56862,1.20354A29.29453,29.29453,0,0,0,170.1737,131.70131ZM72.20487,19.258c4.08181-4.337,12.41659-4.72814,15.58723-4.71119q1.26255.00694,2.52509,0c3.17065-.017,11.50542.37418,15.58723,4.71119,5.10224,5.42113-3.50777,7.01554-3.50777,7.01554l-8.36123.6559a63.70305,63.70305,0,0,1-9.96154,0l-8.36123-.6559S67.10257,24.67908,72.20487,19.258ZM37.0426,115.53562c-.26567.84208-.50283,1.68493-.713,2.5003a44.86765,44.86765,0,0,0-1.39545,11.31121,60.21972,60.21972,0,0,0,.63047,9.937c.90346,4.36809-1.44167,4.66265-1.44167,4.66265-1.63851.6451-3.25654-2.7358-3.87469-4.21452-.21726-.51952-.45956-1.02955-.70866-1.5347a31.9844,31.9844,0,0,1-1.80634-23.45191s1.70445-5.36605,5.87794-4.51755a6.16281,6.16281,0,0,1,1.37785.44171A4.02828,4.02828,0,0,1,37.0426,115.53562Zm26.94653,11.8202c-.32127,1.01851-.60813,2.038-.86237,3.02407A54.26464,54.26464,0,0,0,61.439,144.06056a72.83637,72.83637,0,0,0,.76254,12.01821c1.09272,5.28323-1.74368,5.63956-1.74368,5.63956-1.98168.78019-3.93864-3.309-4.68628-5.09743-.26271-.62842-.55586-1.24527-.8571-1.85623a38.68468,38.68468,0,0,1-2.18475-28.36431s2.06148-6.49,7.10921-5.46364a7.464,7.464,0,0,1,1.66645.534A4.87208,4.87208,0,0,1,63.98913,127.35582Zm30.6548,5.707L92.49225,164.859a3.44546,3.44546,0,0,1-6.8752,0l-2.15169-31.7962a5.60207,5.60207,0,1,1,11.17857,0Zm28.55089,21.70188c-.30131.611-.59439,1.22781-.85711,1.85623-.7477,1.78843-2.7046,5.87762-4.68634,5.09743,0,0-2.83634-.35633-1.74367-5.63956a72.82443,72.82443,0,0,0,.76253-12.01821,54.265,54.265,0,0,0-1.68769-13.68067c-.25425-.986-.5411-2.00556-.86237-3.02407a4.87207,4.87207,0,0,1,2.48374-5.88506,7.46176,7.46176,0,0,1,1.66644-.534c5.04767-1.02634,7.10915,5.46364,7.10915,5.46364A38.68445,38.68445,0,0,1,123.19482,154.76467Zm25.37491-16.56709c-.24911.50515-.49147,1.01518-.70867,1.5347-.61821,1.47872-2.23617,4.85962-3.87469,4.21452,0,0-2.34519-.29456-1.44173-4.66265a60.21206,60.21206,0,0,0,.63047-9.937,44.86172,44.86172,0,0,0-1.39545-11.31121c-.21019-.81537-.44736-1.65822-.713-2.5003a4.0282,4.0282,0,0,1,2.05358-4.86579,6.16248,6.16248,0,0,1,1.37785-.44171c4.17349-.8485,5.87794,4.51755,5.87794,4.51755A31.98446,31.98446,0,0,1,148.56973,138.19758Zm6.18174-62.15965c-1.88274,19.958-15.64449,35.07079-35.0598,38.50152C110.522,116.15992,101.07536,118.4,89.05683,118.4a175.53005,175.53005,0,0,1-31.442-3.09495c-19.41531-3.431-32.37434-19.30905-34.257-39.26707-1.7499-18.54992,6.495-33.56767,22.19836-39.5326,3.81749-1.45265,7.38169-2.80283,11.69091-2.80283a54.65614,54.65614,0,0,1,9.57061,1.24412,109.63339,109.63339,0,0,0,22.23669,2.32259,109.63533,109.63533,0,0,0,22.23592-2.32234c2.057-.43439,6.41275-.91719,8.462-1.13137a15.05384,15.05384,0,0,1,2.775-.04572,35.86415,35.86415,0,0,1,10.02414,2.73491C148.25648,42.47026,156.50132,57.488,154.75147,76.03793Z" fill="url(#d)"/></svg>
