<svg xmlns="http://www.w3.org/2000/svg" xmlns:xlink="http://www.w3.org/1999/xlink" viewBox="0 0 170.43964 172.24121"><defs><linearGradient id="a" x1="161.10964" y1="171.63579" x2="161.10964" y2="2.23886" gradientUnits="userSpaceOnUse"><stop offset="0" stop-color="#ba181d"/><stop offset="0.25" stop-color="#e8283f"/><stop offset="1" stop-color="#ff4063"/></linearGradient><linearGradient id="b" x1="9.3301" y1="171.63579" x2="9.3301" y2="2.23886" xlink:href="#a"/><linearGradient id="c" x1="67.16149" y1="171.63579" x2="67.16149" y2="2.23886" xlink:href="#a"/><linearGradient id="d" x1="85.21981" y1="171.63579" x2="85.21981" y2="2.23886" xlink:href="#a"/></defs><polygon points="85.041 172.241 85.399 172.241 85.225 172.241 85.041 172.241" fill="none"/><path d="M162.1437,135.54944q-.93612,1.50165-2.06811,2.97668Q161.20919,137.0514,162.1437,135.54944Z" fill="url(#a)"/><path d="M10.36416,138.52612Q9.23055,137.0514,8.296,135.54944,9.23217,137.05127,10.36416,138.52612Z" fill="url(#b)"/><path d="M71.92251,168.83875q-5.03412-.45722-9.522-1.29041Q66.88793,168.38165,71.92251,168.83875Z" fill="url(#c)"/><path d="M161.77822,125.20386a29.03422,29.03422,0,0,0,.64411-9.71948c-2.45648-27.87842-4.45233-47.92615-14.52784-76.981A29.97143,29.97143,0,0,0,140.729,26.97925,69.82322,69.82322,0,0,0,111.95211,10.179C105.031,8.2063,95.28744,7.075,85.21987,7.075c-10.06762,0-19.81109,1.13135-26.73224,3.104a69.82409,69.82409,0,0,0-28.777,16.80029,29.97121,29.97121,0,0,0-7.16547,11.52417C12.46963,67.55811,10.47384,87.606,8.0173,115.48438a29.03542,29.03542,0,0,0,.6441,9.7196,27.63279,27.63279,0,0,0,2.30506,5.96509q76.15869,61.09954,147.89367,1.14416A27.84894,27.84894,0,0,0,161.77822,125.20386ZM68.64266,18.30786c3.88044-4.12305,11.804-4.49487,14.81824-4.47876q1.20026.0066,2.40051,0c3.01423-.01611,10.93781.35571,14.81824,4.47876,4.85053,5.15369-3.33472,6.66943-3.33472,6.66943l-7.94873.62354a60.56076,60.56076,0,0,1-9.47009,0l-7.94873-.62354S63.79208,23.46155,68.64266,18.30786ZM35.21511,109.83569c-.25256.80054-.478,1.60181-.67785,2.377a42.6541,42.6541,0,0,0-1.3266,10.75317A57.24821,57.24821,0,0,0,33.81,132.4126c.85889,4.15259-1.37054,4.43261-1.37054,4.43261-1.55768.61329-3.09589-2.60083-3.68353-4.00659-.20655-.49389-.43689-.97876-.67371-1.459A30.4065,30.4065,0,0,1,26.365,109.08472s1.62037-5.10132,5.588-4.29468a5.85829,5.85829,0,0,1,1.30987.41992A3.82955,3.82955,0,0,1,35.21511,109.83569Zm25.61713,11.23706c-.30542.96827-.57813,1.9375-.81983,2.87488a51.58814,51.58814,0,0,0-1.60449,13.00574,69.24382,69.24382,0,0,0,.72492,11.42529c1.03882,5.02259-1.65766,5.36133-1.65766,5.36133-1.88391.7417-3.74432-3.14575-4.45507-4.846-.24976-.59741-.52845-1.18383-.81482-1.76465a36.77616,36.77616,0,0,1-2.077-26.965s1.95978-6.1698,6.75848-5.19409a7.09475,7.09475,0,0,1,1.58423.50769A4.63171,4.63171,0,0,1,60.83224,121.07275Zm29.14246,5.42542-2.04554,30.22754a3.27548,3.27548,0,0,1-6.536,0l-2.04553-30.22754a5.32569,5.32569,0,1,1,10.62708,0ZM117.117,147.12939c-.28644.58082-.56506,1.16724-.81482,1.76465-.71082,1.7002-2.57117,5.58765-4.45514,4.846,0,0-2.69641-.33874-1.65765-5.36133a69.23188,69.23188,0,0,0,.72491-11.42529,51.58763,51.58763,0,0,0-1.60443-13.00574c-.2417-.93738-.5144-1.90661-.81982-2.87488a4.6317,4.6317,0,0,1,2.3612-5.59472,7.09306,7.09306,0,0,1,1.58423-.50769c4.79865-.97571,6.75842,5.19409,6.75842,5.19409A36.77594,36.77594,0,0,1,117.117,147.12939Zm24.12305-15.74975c-.23682.48022-.46723.96509-.67371,1.459-.58771,1.40576-2.12585,4.61988-3.68353,4.00659,0,0-2.22949-.28-1.37061-4.43261a57.24157,57.24157,0,0,0,.59937-9.44678,42.64863,42.64863,0,0,0-1.3266-10.75317c-.19983-.77515-.4253-1.57642-.6778-2.377a3.82948,3.82948,0,0,1,1.95227-4.62573,5.85855,5.85855,0,0,1,1.30988-.41992c3.96759-.80664,5.588,4.29468,5.588,4.29468A30.40653,30.40653,0,0,1,141.24008,131.37964Zm5.87677-59.093C145.327,91.26,132.24417,105.6272,113.78671,108.88867c-8.71729,1.54053-17.69788,3.67-29.12348,3.67a166.8708,166.8708,0,0,1-29.89081-2.94226C36.315,106.35474,23.99526,91.26,22.20547,72.28662,20.54189,54.65186,28.38,40.375,43.30868,34.70435c3.62915-1.381,7.01752-2.66456,11.11414-2.66456a51.95942,51.95942,0,0,1,9.09844,1.18274,104.22435,104.22435,0,0,0,21.13965,2.208,104.227,104.227,0,0,0,21.13892-2.20776c1.95557-.413,6.09637-.87195,8.04449-1.07556a14.311,14.311,0,0,1,2.63807-.04346,34.09459,34.09459,0,0,1,9.5296,2.6C140.94229,40.375,148.78036,54.65186,147.11685,72.28662Z" fill="url(#d)"/><path d="M170.26644,114.86572c-2.521-28.60937-4.62408-48.78088-15.006-78.7196a38.968,38.968,0,0,0-9.34485-14.97254C137.61465,13.00415,127.01357,7.04,114.40664,3.447,106.60775,1.22412,96.24227,0,85.21987,0,74.19741,0,63.83193,1.22412,56.033,3.447,43.42611,7.04,32.825,13.00415,24.52413,21.17358a38.96871,38.96871,0,0,0-9.34478,14.97254c-10.382,29.9386-12.48517,50.11-15.00617,78.7196A37.45529,37.45529,0,0,0,16.6141,149.54956a167.86959,167.86959,0,0,0,33.08166,17.6073l.105.04346.10705.03821c9.31561,3.31958,21.136,5.00268,35.13288,5.00268l.18383-.00012.17438.00012c13.99683,0,25.8172-1.6831,35.13281-5.00268l.10712-.03821.105-.04346a167.86348,167.86348,0,0,0,33.08167-17.6073,36.929,36.929,0,0,0,16.44091-34.68384Zm-3.23419,4.46436q-.01464.70605-.058,1.41089a29.91627,29.91627,0,0,1-.85816,5.57226q-.20131.78735-.44391,1.56934a32.102,32.102,0,0,1-1.14221,3.10364,33.55,33.55,0,0,1-2.38629,4.56323q-.93612,1.50183-2.06811,2.97668-.805,1.04737-1.69934,2.01734a34.74126,34.74126,0,0,1-5.99854,5.1405q-2.21805,1.51392-4.4079,2.95862c-5.83856,3.84985-11.51855,7.31079-16.99249,10.26587q-2.05271,1.108-4.066,2.1195-4.02594,2.02113-7.88245,3.62622-13.348,4.75654-33.62988,4.74292l-.17908-.00012-.17913.00012q-5.06507,0-9.7016-.29516-1.73859-.11078-3.41663-.26318-5.03412-.45722-9.522-1.29041a71.85,71.85,0,0,1-10.98963-2.89417q-3.85355-1.59795-7.88244-3.62622-2.013-1.01055-4.066-2.1195c-5.47394-2.95508-11.154-6.416-16.9925-10.26587q-2.18948-1.4438-4.40789-2.95862a34.73864,34.73864,0,0,1-5.99854-5.1405q-.89254-.9701-1.69928-2.01734Q9.23055,137.0514,8.296,135.54944a33.55844,33.55844,0,0,1-2.38636-4.56323,32.10785,32.10785,0,0,1-1.14227-3.10364q-.24281-.78186-.44391-1.56934a29.91615,29.91615,0,0,1-.85809-5.57226q-.04357-.70459-.058-1.41089-.01464-.70643-.00189-1.41345.01254-.707.051-1.4137.03817-.70643.10052-1.41162c.29669-3.36719.60211-6.62793.93006-9.81568.32794-3.18762.67834-6.30224,1.06506-9.37731q.29-2.30622.609-4.587.31988-2.28259.67376-4.55249A272.66436,272.66436,0,0,1,19.40969,37.61316q.32364-.93329.69629-1.8468a35.82453,35.82453,0,0,1,1.68421-3.55811,33.23423,33.23423,0,0,1,5.87463-7.8435,60.7583,60.7583,0,0,1,6.17084-5.3064,63.83526,63.83526,0,0,1,6.97882-4.54761,70.49644,70.49644,0,0,1,7.80279-3.77344,81.21223,81.21223,0,0,1,8.64307-2.98437q.71823-.2047,1.46509-.39661,1.493-.384,3.09051-.71643,1.59513-.33288,3.27991-.61426,1.68255-.28143,3.44031-.51171,1.75544-.23035,3.57147-.40943,1.81366-.17907,3.67346-.30713,1.85742-.1278,3.7464-.20459,1.88653-.0769,3.79-.10241.95059-.01282,1.90234-.01282.95151,0,1.90235.01282,1.90109.02544,3.79.10241,1.88653.07654,3.74633.20459,1.85733.128,3.67347.30713,1.81365.17909,3.57147.40943,1.75534.23034,3.44031.51171,1.68246.28163,3.28.61426,1.595.33252,3.09052.71643.74652.1919,1.46509.39661a81.21635,81.21635,0,0,1,8.643,2.98437,70.50274,70.50274,0,0,1,7.80286,3.77344,63.84032,63.84032,0,0,1,6.9787,4.54761,60.76579,60.76579,0,0,1,6.17083,5.3064,33.23288,33.23288,0,0,1,5.8747,7.8435,35.82445,35.82445,0,0,1,1.6842,3.55811q.37254.91314.69629,1.8468A272.66288,272.66288,0,0,1,163.6047,86.75879q.35486,2.272.67377,4.55249.31978,2.283.609,4.587c.38671,3.07507.73718,6.18969,1.06506,9.37731.32794,3.18775.63336,6.44849.93,9.81568q.06217.705.10053,1.41162.03808.70642.051,1.4137Q167.04662,118.6236,167.03225,119.33008Z" fill="#f7f7f7"/><path d="M123.77084,37.59058c-8.15-3.11988-21.78,1.51-31.74,1.82006-2.03.15015-12.71.15015-14.74,0-9.96-.31005-23.59-4.93994-31.74-1.82006A32.77566,32.77566,0,0,0,25.75778,60.46143c-3.69373,18.7528,6.37939,41.24609,30.29992,45.47314a160.60752,160.60752,0,0,0,28.60346,2.18164,160.60808,160.60808,0,0,0,28.60351-2.18164C137.17935,101.7085,147.25326,79.2251,143.5671,60.475,140.66024,49.28394,133.08718,41.15918,123.77084,37.59058ZM46.53433,81.29126a1.00461,1.00461,0,0,1-1.18018.77734c-.04639-.00879-4.751-.91894-7.57178,2.00391a1.00005,1.00005,0,0,1-1.43945-1.38867c3.59326-3.72656,9.17822-2.624,9.41455-2.57422A1.00042,1.00042,0,0,1,46.53433,81.29126ZM46.508,76.511a.99341.99341,0,0,1-1.2544.65234c-1.83691-.57812-7.14794-1.72754-9.63427-.11426a1.00005,1.00005,0,1,1-1.08887-1.67773c3.78662-2.457,11.02-.21192,11.32617-.11426A.9986.9986,0,0,1,46.508,76.511ZM49.901,73.86743a.99936.99936,0,0,1-1.38721.27246c-.04688-.03125-4.625-3.06445-9.38184-3.06445-.09424,0-.188.001-.28222.00391a1.01192,1.01192,0,0,1-1.02539-.97461,1.00047,1.00047,0,0,1,.97363-1.02539c5.54736-.14161,10.61719,3.25586,10.832,3.40136A.99876.99876,0,0,1,49.901,73.86743Zm17.08868-7.07226a.1639.1639,0,0,1-.10095-.01453l-.01453-.0072c-1.64221-.81385-2.99945-1.5719-4.37762-2.161-.34626-.13465-.673-.3031-1.0033-.45276-.33746-.12952-.657-.30969-.98828-.46655L59.482,63.2644c-.35535-.09961-.7204-.17614-1.08838-.26037a8.49541,8.49541,0,0,0-1.12842-.10144c-.19031-.00867-.38226-.03333-.57422-.03028l-.57666.05164a10.451,10.451,0,0,0-1.17114.106l-1.17059.25207a21.72465,21.72465,0,0,0-2.33838.74036l-2.27515,1.07-.01434.00671a.15.15,0,0,1-.16052-.25049c.65063-.54834,1.30914-1.11133,2.00366-1.63586a23.00078,23.00078,0,0,1,2.27105-1.34,12.29575,12.29575,0,0,1,5.30494-1.26257,8.76728,8.76728,0,0,1,5.4627,1.42175,13.3,13.3,0,0,1,1.07941.92163A8.97447,8.97447,0,0,1,66,64.03979a6.277,6.277,0,0,1,1.12293,2.5658A.16384.16384,0,0,1,66.98971,66.79517ZM99.92007,83.49146c-2.06732,1.3247-8.72193,4.83129-13.9115-.73169a1.99273,1.99273,0,0,0-2.58484-.114A8.96214,8.96214,0,0,1,76.589,85.80786a14.0846,14.0846,0,0,1-7.18261-2.3164.99961.99961,0,1,1,1.07812-1.6836c6.9834,4.47168,10.94238.59961,12.68018-2.10644a3.23835,3.23835,0,0,0,.49853-1.75684V75.7395c0-.02051.01038-.03735.0116-.05762-2.605-.28759-4.58362-1.68676-4.58362-3.37341,0-1.89465,2.49469-3.43054,5.572-3.43054s5.572,1.53589,5.572,3.43054c0,1.68665-1.97857,3.08582-4.58361,3.37341.00122.02027.01159.03711.01159.05762v2.20508a3.23262,3.23262,0,0,0,.49854,1.75586c1.73828,2.70605,5.69482,6.57715,12.68017,2.10742a.99961.99961,0,1,1,1.07813,1.6836ZM115.55386,63.282l-1.17053-.25207a10.45141,10.45141,0,0,0-1.17115-.106l-.57666-.05164c-.192-.00305-.38391.02161-.57422.03028a8.49435,8.49435,0,0,0-1.12841.10144c-.368.08423-.733.16076-1.08838.26037l-1.02307.42872c-.3313.15686-.65082.337-.98829.46655-.33032.14966-.657.31811-1.00329.45276-1.37818.58911-2.73541,1.34716-4.37769,2.161l-.01446.00708a.16385.16385,0,0,1-.23419-.17493,6.27789,6.27789,0,0,1,1.123-2.5658,8.97541,8.97541,0,0,1,.894-1.0863A13.30343,13.30343,0,0,1,105.3,62.03186a8.76731,8.76731,0,0,1,5.46271-1.42175,12.29524,12.29524,0,0,1,5.30487,1.26257,22.99611,22.99611,0,0,1,2.27112,1.34c.69452.52453,1.353,1.08752,2.00366,1.63586a.15006.15006,0,0,1-.1604.25061l-.01447-.00683-2.27514-1.07A21.72632,21.72632,0,0,0,115.55386,63.282Zm4.70263,11.02783a1,1,0,0,1-.56005-1.8291c.21435-.1455,5.29882-3.54394,10.832-3.40136a1.00048,1.00048,0,0,1,.97363,1.02539,1.03591,1.03591,0,0,1-1.02539.97461c-.09375-.00293-.188-.00391-.28223-.00391-4.75732,0-9.335,3.0332-9.38183,3.06445A.9993.9993,0,0,1,120.25649,74.30981Zm12.70166,9.78809a1.00019,1.00019,0,0,1-1.41406-.02539c-2.8374-2.94238-7.523-2.01367-7.56982-2.00391a1.00023,1.00023,0,0,1-.40528-1.959c.23633-.04785,5.82178-1.15137,9.41456,2.57422A1.00022,1.00022,0,0,1,132.95815,84.0979Zm2.13233-7.34277a1.00055,1.00055,0,0,1-1.3833.29394c-2.48584-1.61426-7.79785-.46386-9.63428.11426a.99968.99968,0,0,1-.603-1.90625c.30616-.09766,7.54-2.34277,11.32618.11426A1.00039,1.00039,0,0,1,135.09048,76.75513Z" fill="#f7f7f7"/><path d="M71.97738,24.97729l7.94873.62354a60.56076,60.56076,0,0,0,9.47009,0l7.94873-.62354s8.18525-1.51574,3.33472-6.66943c-3.88043-4.12305-11.804-4.49487-14.81824-4.47876q-1.20026.0066-2.40051,0c-3.01422-.01611-10.9378.35571-14.81824,4.47876C63.79208,23.46155,71.97738,24.97729,71.97738,24.97729Z" fill="#f7f7f7"/><path d="M120.18191,65.09912a.15006.15006,0,0,0,.1604-.25061c-.65063-.54834-1.30914-1.11133-2.00366-1.63586a22.99611,22.99611,0,0,0-2.27112-1.34,12.29524,12.29524,0,0,0-5.30487-1.26257A8.76731,8.76731,0,0,0,105.3,62.03186a13.30343,13.30343,0,0,0-1.07941.92163,8.97541,8.97541,0,0,0-.894,1.0863,6.27789,6.27789,0,0,0-1.123,2.5658.16385.16385,0,0,0,.23419.17493l.01446-.00708c1.64228-.81385,2.99951-1.5719,4.37769-2.161.34625-.13465.673-.3031,1.00329-.45276.33747-.12952.657-.30969.98829-.46655l1.02307-.42872c.35534-.09961.72033-.17614,1.08838-.26037a8.49435,8.49435,0,0,1,1.12841-.10144c.19031-.00867.38227-.03333.57422-.03028l.57666.05164a10.45141,10.45141,0,0,1,1.17115.106l1.17053.25207a21.72632,21.72632,0,0,1,2.33844.74036l2.27514,1.07Z" fill="#030813"/><path d="M65.10592,62.95349a13.3,13.3,0,0,0-1.07941-.92163,8.76728,8.76728,0,0,0-5.4627-1.42175,12.29575,12.29575,0,0,0-5.30494,1.26257,23.00078,23.00078,0,0,0-2.27105,1.34c-.69452.52453-1.353,1.08752-2.00366,1.63586a.15.15,0,0,0,.16052.25049l.01434-.00671,2.27515-1.07a21.72465,21.72465,0,0,1,2.33838-.74036l1.17059-.25207a10.451,10.451,0,0,1,1.17114-.106l.57666-.05164c.192-.00305.38391.02161.57422.03028a8.49541,8.49541,0,0,1,1.12842.10144c.368.08423.733.16076,1.08838.26037l1.02307.42872c.3313.15686.65082.337.98828.46655.33032.14966.657.31811,1.0033.45276,1.37817.58911,2.73541,1.34716,4.37762,2.161l.01453.0072a.1639.1639,0,0,0,.23413-.175A6.277,6.277,0,0,0,66,64.03979,8.97447,8.97447,0,0,0,65.10592,62.95349Z" fill="#030813"/><path d="M98.84194,81.80786c-6.98535,4.46973-10.94189.59863-12.68017-2.10742a3.23262,3.23262,0,0,1-.49854-1.75586V75.7395c0-.02051-.01037-.03735-.01159-.05762,2.605-.28759,4.58361-1.68676,4.58361-3.37341,0-1.89465-2.49469-3.43054-5.572-3.43054s-5.572,1.53589-5.572,3.43054c0,1.68665,1.97858,3.08582,4.58362,3.37341-.00122.02027-.0116.03711-.0116.05762v2.20508a3.23835,3.23835,0,0,1-.49853,1.75684c-1.7378,2.70605-5.69678,6.57812-12.68018,2.10644a.99961.99961,0,1,0-1.07812,1.6836,14.0846,14.0846,0,0,0,7.18261,2.3164,8.96214,8.96214,0,0,0,6.83472-3.16211,1.99273,1.99273,0,0,1,2.58484.114c5.18957,5.563,11.84418,2.05639,13.9115.73169a.99961.99961,0,1,0-1.07813-1.6836Z" fill="#030813"/><path d="M130.47671,71.07935a1.03591,1.03591,0,0,0,1.02539-.97461,1.00048,1.00048,0,0,0-.97363-1.02539c-5.53321-.14258-10.61768,3.25586-10.832,3.40136a.99985.99985,0,0,0,1.11621,1.65918c.04687-.03125,4.62451-3.06445,9.38183-3.06445C130.28872,71.07544,130.383,71.07642,130.47671,71.07935Z" fill="#030813"/><path d="M123.46987,75.25708a.99968.99968,0,0,0,.603,1.90625c1.83643-.57812,7.14844-1.72852,9.63428-.11426a1.00005,1.00005,0,1,0,1.08887-1.67773C131.00991,72.91431,123.776,75.15942,123.46987,75.25708Z" fill="#030813"/><path d="M123.569,80.10962a1.00023,1.00023,0,0,0,.40528,1.959c.04687-.00976,4.73242-.93847,7.56982,2.00391a1.00006,1.00006,0,0,0,1.43946-1.38867C129.39077,78.95825,123.80532,80.06177,123.569,80.10962Z" fill="#030813"/><path d="M38.798,69.07935a1.00047,1.00047,0,0,0-.97363,1.02539,1.01192,1.01192,0,0,0,1.02539.97461c.09423-.00293.188-.00391.28222-.00391,4.75684,0,9.335,3.0332,9.38184,3.06445A.99985.99985,0,0,0,49.63,72.48071C49.41519,72.33521,44.34536,68.93774,38.798,69.07935Z" fill="#030813"/><path d="M45.85659,75.25708c-.30615-.09766-7.53955-2.34277-11.32617.11426a1.00005,1.00005,0,0,0,1.08887,1.67773c2.48633-1.61328,7.79736-.46386,9.63427.11426a.99968.99968,0,0,0,.603-1.90625Z" fill="#030813"/><path d="M45.75747,80.10962c-.23633-.04981-5.82129-1.15234-9.41455,2.57422a1.00005,1.00005,0,0,0,1.43945,1.38867c2.8208-2.92285,7.52539-2.0127,7.57178-2.00391a1,1,0,0,0,.40332-1.959Z" fill="#030813"/><path d="M126.012,34.70374a34.09459,34.09459,0,0,0-9.5296-2.6,14.311,14.311,0,0,0-2.63807.04346c-1.94812.20361-6.08892.66259-8.04449,1.07556a104.227,104.227,0,0,1-21.13892,2.20776,104.22435,104.22435,0,0,1-21.13965-2.208,51.95942,51.95942,0,0,0-9.09844-1.18274c-4.09662,0-7.485,1.28357-11.11414,2.66456C28.38,40.375,20.54189,54.65186,22.20547,72.28662c1.78979,18.97339,14.1095,34.06812,32.567,37.32984a166.8708,166.8708,0,0,0,29.89081,2.94226c11.4256,0,20.40619-2.12952,29.12348-3.67C132.24417,105.6272,145.327,91.26,147.11685,72.28662,148.78036,54.65186,140.94229,40.375,126.012,34.70374Zm-12.74732,71.23083a160.60808,160.60808,0,0,1-28.60351,2.18164,160.60752,160.60752,0,0,1-28.60346-2.18164c-23.92053-4.227-33.99365-26.72034-30.29992-45.47314A32.77566,32.77566,0,0,1,45.55087,37.59058c8.15-3.11988,21.78,1.51,31.74,1.82006,2.03.15015,12.71.15015,14.74,0,9.96-.31005,23.59-4.93994,31.74-1.82006,9.31634,3.5686,16.8894,11.69336,19.79626,22.8844C147.25326,79.2251,137.17935,101.7085,113.26467,105.93457Z" fill="#030813"/><path d="M112.43551,114.97034a7.09306,7.09306,0,0,0-1.58423.50769,4.6317,4.6317,0,0,0-2.3612,5.59472c.30542.96827.57812,1.9375.81982,2.87488a51.58763,51.58763,0,0,1,1.60443,13.00574,69.23188,69.23188,0,0,1-.72491,11.42529c-1.03876,5.02259,1.65765,5.36133,1.65765,5.36133,1.884.7417,3.74432-3.14575,4.45514-4.846.24976-.59741.52838-1.18383.81482-1.76465a36.77594,36.77594,0,0,0,2.0769-26.965S117.23416,113.99463,112.43551,114.97034Z" fill="#030813"/><path d="M137.36935,104.79a5.85855,5.85855,0,0,0-1.30988.41992,3.82948,3.82948,0,0,0-1.95227,4.62573c.2525.80054.478,1.60181.6778,2.377a42.64863,42.64863,0,0,1,1.3266,10.75317,57.24157,57.24157,0,0,1-.59937,9.44678c-.85888,4.15259,1.37061,4.43261,1.37061,4.43261,1.55768.61329,3.09582-2.60083,3.68353-4.00659.20648-.49389.43689-.97876.67371-1.459a30.40653,30.40653,0,0,0,1.71722-22.29492S141.33694,103.9834,137.36935,104.79Z" fill="#030813"/><path d="M58.471,115.478a7.09475,7.09475,0,0,0-1.58423-.50769c-4.7987-.97571-6.75848,5.19409-6.75848,5.19409a36.77616,36.77616,0,0,0,2.077,26.965c.28637.58082.56506,1.16724.81482,1.76465.71075,1.7002,2.57116,5.58765,4.45507,4.846,0,0,2.69648-.33874,1.65766-5.36133a69.24382,69.24382,0,0,1-.72492-11.42529,51.58814,51.58814,0,0,1,1.60449-13.00574c.2417-.93738.51441-1.90661.81983-2.87488A4.63171,4.63171,0,0,0,58.471,115.478Z" fill="#030813"/><path d="M33.26284,105.21A5.85829,5.85829,0,0,0,31.953,104.79c-3.96759-.80664-5.588,4.29468-5.588,4.29468a30.4065,30.4065,0,0,0,1.71723,22.29492c.23682.48022.46716.96509.67371,1.459.58764,1.40576,2.12585,4.61988,3.68353,4.00659,0,0,2.22943-.28,1.37054-4.43261a57.24821,57.24821,0,0,1-.59936-9.44678,42.6541,42.6541,0,0,1,1.3266-10.75317c.19983-.77515.42529-1.57642.67785-2.377A3.82955,3.82955,0,0,0,33.26284,105.21Z" fill="#030813"/><path d="M166.98312,116.50293q-.03817-.70643-.10053-1.41162c-.29669-3.36719-.60211-6.62793-.93-9.81568-.32788-3.18762-.67835-6.30224-1.06506-9.37731q-.29-2.30622-.609-4.587-.31989-2.28259-.67377-4.55249A272.66288,272.66288,0,0,0,151.03,37.61316q-.32364-.93329-.69629-1.8468a35.82445,35.82445,0,0,0-1.6842-3.55811,33.23288,33.23288,0,0,0-5.8747-7.8435,60.76579,60.76579,0,0,0-6.17083-5.3064,63.84032,63.84032,0,0,0-6.9787-4.54761,70.50274,70.50274,0,0,0-7.80286-3.77344,81.21635,81.21635,0,0,0-8.643-2.98437q-.71823-.2047-1.46509-.39661-1.493-.384-3.09052-.71643-1.59512-.33288-3.28-.61426-1.68256-.28143-3.44031-.51171-1.75544-.23035-3.57147-.40943-1.81367-.17907-3.67347-.30713-1.85742-.1278-3.74633-.20459-1.88653-.0769-3.79-.10241-.95059-.01282-1.90235-.01282-.95151,0-1.90234.01282-1.9011.02544-3.79.10241-1.88653.07654-3.7464.20459-1.85742.128-3.67346.30713-1.81366.17909-3.57147.40943-1.75534.23034-3.44031.51171-1.68246.28163-3.27991.61426-1.595.33252-3.09051.71643-.74652.1919-1.46509.39661a81.21223,81.21223,0,0,0-8.64307,2.98437,70.49644,70.49644,0,0,0-7.80279,3.77344,63.83526,63.83526,0,0,0-6.97882,4.54761,60.7583,60.7583,0,0,0-6.17084,5.3064,33.23423,33.23423,0,0,0-5.87463,7.8435A35.82453,35.82453,0,0,0,20.106,35.76636q-.37261.91314-.69629,1.8468A272.66436,272.66436,0,0,0,6.83492,86.75879q-.35486,2.272-.67376,4.55249-.3198,2.283-.609,4.587c-.38672,3.07507-.73712,6.18969-1.06506,9.37731-.328,3.18775-.63337,6.44849-.93006,9.81568q-.06207.705-.10052,1.41162-.03809.70642-.051,1.4137-.01254.707.00189,1.41345.01475.70605.058,1.41089a29.91615,29.91615,0,0,0,.85809,5.57226q.20142.78735.44391,1.56934a32.10785,32.10785,0,0,0,1.14227,3.10364A33.55844,33.55844,0,0,0,8.296,135.54944q.93612,1.50165,2.06811,2.97668.805,1.04737,1.69928,2.01734A34.73864,34.73864,0,0,0,18.062,145.684q2.218,1.51392,4.40789,2.95862c5.8385,3.84985,11.51856,7.31079,16.9925,10.26587q2.05279,1.108,4.066,2.1195,4.02594,2.02113,7.88244,3.62622a71.85,71.85,0,0,0,10.98963,2.89417q4.48744.83331,9.522,1.29041,1.67806.15252,3.41663.26318,4.63614.29535,9.7016.29516l.17913-.00012.17908.00012q20.26209,0,33.62988-4.74292,3.85354-1.59795,7.88245-3.62622,2.013-1.01055,4.066-2.1195c5.47394-2.95508,11.15393-6.416,16.99249-10.26587q2.18949-1.4438,4.4079-2.95862a34.74126,34.74126,0,0,0,5.99854-5.1405q.89255-.9701,1.69934-2.01734,1.13359-1.47472,2.06811-2.97668a33.55,33.55,0,0,0,2.38629-4.56323,32.102,32.102,0,0,0,1.14221-3.10364q.24272-.78186.44391-1.56934a29.91627,29.91627,0,0,0,.85816-5.57226q.04349-.70459.058-1.41089.01466-.70643.00183-1.41345Q167.02154,117.20965,166.98312,116.50293Zm-5.2049,8.70093a27.84894,27.84894,0,0,1-2.91809,7.10937q-71.635,59.98353-147.89367-1.14416A27.63279,27.63279,0,0,1,8.6614,125.204a29.03542,29.03542,0,0,1-.6441-9.7196c2.45654-27.87842,4.45233-47.92627,14.52789-76.981a29.97121,29.97121,0,0,1,7.16547-11.52417A69.82409,69.82409,0,0,1,58.48763,10.179C65.40878,8.2063,75.15225,7.075,85.21987,7.075c10.06757,0,19.8111,1.13135,26.73224,3.104A69.82322,69.82322,0,0,1,140.729,26.97925a29.97143,29.97143,0,0,1,7.16552,11.52417c10.07551,29.05481,12.07136,49.10254,14.52784,76.981A29.03422,29.03422,0,0,1,161.77822,125.20386Z" fill="#030813"/><path d="M84.66116,120.81287a5.32572,5.32572,0,0,0-5.31354,5.6853l2.04553,30.22754a3.27548,3.27548,0,0,0,6.536,0l2.04554-30.22754A5.32573,5.32573,0,0,0,84.66116,120.81287Z" fill="#030813"/></svg>