<svg width="62" height="86" viewBox="0 0 62 86" fill="none" xmlns="http://www.w3.org/2000/svg">
<path d="M31 86C13.9106 86 0 72.061 0 54.9369V54.5728C0 45.9728 3.51172 32.4282 8.55225 21.6138C11.4434 15.3951 14.6372 10.4049 18.0278 6.74956C22.1904 2.27513 26.5649 0 31 0C35.4351 0 39.7944 2.27513 43.9722 6.74956C47.3628 10.3898 50.5566 15.3951 53.4478 21.6138C58.4883 32.4282 62 45.988 62 54.5728V54.9369C61.9849 72.061 48.0894 86 31 86ZM31 5.30864C25.2783 5.30864 18.8452 12.0734 13.3506 23.8434C8.61279 34.036 5.29785 46.6705 5.29785 54.5728V54.9369C5.29785 69.1337 16.832 80.6914 31 80.6914C45.168 80.6914 56.7021 69.1337 56.7021 54.9369V54.5728C56.7021 46.6705 53.3872 34.036 48.6494 23.8586C43.1548 12.0734 36.7217 5.30864 31 5.30864Z" fill="white"/>
<path d="M23.4619 44.4713L29.7134 38.2071C30.3037 37.6155 31.2573 37.6155 31.8477 38.2071L37.0244 43.3944C37.6147 43.9859 38.5684 43.9859 39.1587 43.3944L41.2778 41.2709C41.8682 40.6794 41.8682 39.7238 41.2778 39.1323L31.8477 29.6829C31.2573 29.0914 30.3037 29.0914 29.7134 29.6829L20.2832 39.1323C19.6929 39.7238 19.6929 40.6794 20.2832 41.2709L23.4619 44.4713ZM13.0176 46.4127L15.1367 44.2892C15.7271 43.6977 16.6807 43.6977 17.271 44.2892L19.3901 46.4127C19.9805 47.0042 19.9805 47.9598 19.3901 48.5513L17.271 50.6748C16.6807 51.2663 15.7271 51.2663 15.1367 50.6748L13.0176 48.5513C12.4272 47.9598 12.4272 47.0042 13.0176 46.4127ZM23.4619 50.4928L29.7134 56.757C30.3037 57.3485 31.2573 57.3485 31.8477 56.757L37.0244 51.5697C37.6147 50.9781 38.5684 50.9781 39.1587 51.5697L42.3525 54.7548L31.8477 65.2811C31.2573 65.8727 30.3037 65.8727 29.7134 65.2811L19.2085 54.7548L23.4619 50.4928ZM42.1709 46.4127L44.29 44.2892C44.8804 43.6977 45.834 43.6977 46.4243 44.2892L48.5435 46.4127C49.1338 47.0042 49.1338 47.9598 48.5435 48.5513L46.4243 50.6748C45.834 51.2663 44.8804 51.2663 44.29 50.6748L42.1709 48.5513C41.5806 47.9598 41.5806 47.0042 42.1709 46.4127Z" fill="white"/>
<path d="M35.102 47.4744L31.8477 44.2134C31.2573 43.6219 30.3037 43.6219 29.7134 44.2134L26.459 47.4744L29.6982 50.7203C30.2886 51.3118 31.2422 51.3118 31.8325 50.7203L35.102 47.4744Z" fill="white"/>
</svg>
