<svg xmlns="http://www.w3.org/2000/svg" xmlns:xlink="http://www.w3.org/1999/xlink" viewBox="0 0 481.19922 139.21266"><defs><linearGradient id="ad70c91d-a224-43f3-bec9-6fe33827646f" x1="36.39336" y1="100.32656" x2="36.39336" y2="59.54274" gradientUnits="userSpaceOnUse"><stop offset="0" stop-color="#6e44ff"/><stop offset="1" stop-color="#1d1d1b"/></linearGradient><linearGradient id="a35aca7a-3939-4160-8863-adf153e8272d" x1="142.10599" y1="84.71816" x2="72.09629" y2="84.71816" xlink:href="#ad70c91d-a224-43f3-bec9-6fe33827646f"/><linearGradient id="eb8b5b10-8878-41cd-887f-76162c5cf957" x1="209.41993" y1="84.71816" x2="154.12503" y2="84.71816" xlink:href="#ad70c91d-a224-43f3-bec9-6fe33827646f"/><linearGradient id="f9136bef-6d64-4008-b4c0-e90096b3cbe6" x1="266.13066" y1="101.39696" x2="266.13066" y2="60.79387" xlink:href="#ad70c91d-a224-43f3-bec9-6fe33827646f"/><linearGradient id="b2829890-24be-4dc3-9865-daf5542bd588" x1="381.14141" y1="101.30642" x2="381.14141" y2="54.42909" xlink:href="#ad70c91d-a224-43f3-bec9-6fe33827646f"/><linearGradient id="fb98ff37-6edb-474d-95b8-91084ec12a94" x1="324.36796" y1="101.30642" x2="324.36796" y2="54.42909" xlink:href="#ad70c91d-a224-43f3-bec9-6fe33827646f"/><linearGradient id="e412575a-b5b9-41b6-a5b4-558e9aaaa7e5" x1="352.52521" y1="101.30699" x2="352.52521" y2="54.42895" xlink:href="#ad70c91d-a224-43f3-bec9-6fe33827646f"/><linearGradient id="eaf41d39-6a78-40a3-bf90-cb82a702cef8" x1="4.99981" y1="53.50336" x2="67.78691" y2="53.50336" xlink:href="#ad70c91d-a224-43f3-bec9-6fe33827646f"/><linearGradient id="a7c6a521-9151-4d72-a5dc-d45b39e0883c" x1="113.47051" y1="63.14452" x2="113.47051" y2="31.93172" xlink:href="#ad70c91d-a224-43f3-bec9-6fe33827646f"/><linearGradient id="b71a79a6-5e57-4a29-bf6e-b5fe503c6c4a" x1="165.23442" y1="53.50336" x2="222.89654" y2="53.50336" xlink:href="#ad70c91d-a224-43f3-bec9-6fe33827646f"/><linearGradient id="aafaec0f-3fce-4608-9e86-f5be4acd077d" x1="239.08887" y1="53.50336" x2="301.30068" y2="53.50336" xlink:href="#ad70c91d-a224-43f3-bec9-6fe33827646f"/><linearGradient id="aa2e9a80-afd3-4076-ad45-c0dfa59f19d3" x1="279.99672" y1="53.50336" x2="297.04563" y2="53.50336" xlink:href="#ad70c91d-a224-43f3-bec9-6fe33827646f"/><linearGradient id="a494fc04-f75c-4f42-82cb-adce04158b26" x1="372.63456" y1="69.34498" x2="372.63456" y2="25.45354" xlink:href="#ad70c91d-a224-43f3-bec9-6fe33827646f"/><linearGradient id="f5a8de2c-946a-4e6b-8414-37d4cc10b3f2" x1="332.96461" y1="69.34498" x2="332.96461" y2="25.45354" xlink:href="#ad70c91d-a224-43f3-bec9-6fe33827646f"/><linearGradient id="af219084-71fc-40fe-824a-e3d26e979b84" x1="467.09239" y1="84.71816" x2="397.08259" y2="84.71816" xlink:href="#ad70c91d-a224-43f3-bec9-6fe33827646f"/><linearGradient id="f2798039-3264-40c2-8887-d5856a84bf8d" x1="438.45586" y1="63.14452" x2="438.45586" y2="31.93172" xlink:href="#ad70c91d-a224-43f3-bec9-6fe33827646f"/><linearGradient id="a1980203-6fac-4752-b505-e37675c264ac" x1="192.94856" y1="34.89696" x2="192.94856" y2="103.32656" gradientUnits="userSpaceOnUse"><stop offset="0" stop-color="#fff"/><stop offset="0.02755" stop-color="#ffcbd8"/><stop offset="0.05975" stop-color="#ff96b0"/><stop offset="0.0924" stop-color="#ff688d"/><stop offset="0.12479" stop-color="#ff4370"/><stop offset="0.15691" stop-color="#ff255a"/><stop offset="0.18865" stop-color="#ff114b"/><stop offset="0.21989" stop-color="#ff0441"/><stop offset="0.25" stop-color="#ff003e"/><stop offset="0.38668" stop-color="#fd0141"/><stop offset="0.49648" stop-color="#f5054b"/><stop offset="0.59698" stop-color="#e80b5c"/><stop offset="0.6919" stop-color="#d61374"/><stop offset="0.78295" stop-color="#bf1e93"/><stop offset="0.87106" stop-color="#a32bb9"/><stop offset="0.9552" stop-color="#823be4"/><stop offset="1" stop-color="#6e44ff"/></linearGradient><linearGradient id="b3ade456-70d6-42fc-b481-640e545d00fc" x1="36.39336" y1="34.89696" x2="36.39336" y2="103.32656" xlink:href="#a1980203-6fac-4752-b505-e37675c264ac"/><linearGradient id="a2f4ad7b-01b5-40cb-9836-4141adff7085" x1="113.49541" y1="34.89696" x2="113.49541" y2="103.32656" xlink:href="#a1980203-6fac-4752-b505-e37675c264ac"/><linearGradient id="ba6d9dfa-3b46-461f-bfa1-46874b1eb812" x1="266.13066" y1="34.89696" x2="266.13066" y2="104.39696" xlink:href="#a1980203-6fac-4752-b505-e37675c264ac"/><linearGradient id="b8860ea3-3436-4573-9f60-bfc070fb5b04" x1="352.77811" y1="34.89696" x2="352.77811" y2="103.32656" xlink:href="#a1980203-6fac-4752-b505-e37675c264ac"/><linearGradient id="f3a4da63-9cae-4c0d-8c61-f4b31c828087" x1="438.48321" y1="34.89696" x2="438.48321" y2="103.32656" xlink:href="#a1980203-6fac-4752-b505-e37675c264ac"/></defs><g id="a3745d43-3ade-4912-a10e-12f6027a91b9" data-name="Layer 2"><g id="a12501da-6b0e-4081-a1d0-efa5238d7b99" data-name="Layer 4"><path d="M128.76351,14.73876l11.9648,15.375H105.867c.9883-2.4473,1.8203-4.7266,2.5449-6.9629l1.0332-3.1973-20.8769-7.0762-1.0762,3.2559c-7.334,22.1367-21,41.1152-40.6231,56.4043l-2.9375,2.291,14.5684,15.5879,2.4668-1.9961c14.1094-11.4277,25.541-23.8848,34.0019-37.0547h35.7637a101.15639,101.15639,0,0,1-11.3574,24.4512l-21.5469-13.7461-11.4316,17.9199,19.4668,12.4141c-11.2403,11.123-25.2442,19.791-41.6895,25.7871l-3.9336,1.4336,11.7578,18.9668,2.6543-1.0645c25.918-10.3867,70.92-36.998,81.1211-98.4844l.3907-2.3496-6.8067-3.8476,6.2832-4.8867-16.5429-21.2579Z" fill="none" stroke="#77001d" stroke-miterlimit="10"/><rect x="154.06812" y="7.88073" width="13.09287" height="26.93765" transform="matrix(0.78922, -0.61412, 0.61412, 0.78922, 20.7439, 103.1361)" fill="none" stroke="#77001d" stroke-miterlimit="10"/><path d="M323.68931,15.25626v21.2539h92.8496a338.61126,338.61126,0,0,1-32.043,37.2403c-9.7695-7.8887-19.875-15.375-30.0762-22.2891l-2.5371-1.7187-13.7598,16.3066,3.1915,2.1113a385.76871,385.76871,0,0,1,69.8574,58.9551l2.6172,2.8164,13.7617-16.3105-2.1016-2.2071c-7.6738-8.0781-15.959-16.0898-24.6582-23.8496a319.66789,319.66789,0,0,0,46.207-57.789l1.5547-2.502-14.2382-12.0176Z" fill="none" stroke="#77001d" stroke-miterlimit="10"/><path d="M244.281,13.05316v105.5723l13.7969,12.8808,2.3028-1.8574a261.19554,261.19554,0,0,0,50.2968-53.8965l1.6914-2.4199-15.5468-14.5078-2.2598,3.1387a283.45121,283.45121,0,0,1-29.0293,34.1621V13.05316Z" fill="none" stroke="#77001d" stroke-miterlimit="10"/><path d="M205.24781,16.07076l-.1464,3.2519c-.4258,9.5508-.2344,18.2305-.0508,26.6211.6133,27.9922,1.0566,48.2168-23.4473,65.6875l-3.0293,2.1621,14.0703,16.4473,2.5215-1.7168c34.6309-23.5684,33.6817-53.9687,32.3672-96.041-.1328-4.2305-.2695-8.5899-.375-13.0879l-.0762-3.3242Z" fill="none" stroke="#77001d" stroke-miterlimit="10"/><path d="M121.76351,11.73876l11.9648,15.375H98.867c.9883-2.4473,1.8203-4.7266,2.5449-6.9629l1.0332-3.1973-20.8769-7.0762-1.0762,3.2559c-7.334,22.1367-21,41.1152-40.6231,56.4043l-2.9375,2.291,14.5684,15.5879,2.4668-1.9961c14.1094-11.4277,25.541-23.8848,34.0019-37.0547h35.7637a101.15639,101.15639,0,0,1-11.3574,24.4512l-21.5469-13.7461-11.4316,17.9199,19.4668,12.4141c-11.2403,11.123-25.2442,19.791-41.6895,25.7871l-3.9336,1.4336,11.7578,18.9668,2.6543-1.0645c25.918-10.3867,70.92-36.998,81.1211-98.4844l.3907-2.3496-6.8067-3.8476,6.2832-4.8867-16.5429-21.2579Z" fill="none" stroke="#ae003f" stroke-miterlimit="10"/><rect x="147.06812" y="4.88073" width="13.09287" height="26.93765" transform="matrix(0.78922, -0.61412, 0.61412, 0.78922, 21.11076, 98.20494)" fill="none" stroke="#ae003f" stroke-miterlimit="10"/><path d="M316.68931,12.25626v21.2539h92.8496a338.61126,338.61126,0,0,1-32.043,37.2403c-9.7695-7.8887-19.875-15.375-30.0762-22.2891l-2.5371-1.7187-13.7598,16.3066,3.1915,2.1113a385.76871,385.76871,0,0,1,69.8574,58.9551l2.6172,2.8164,13.7617-16.3105-2.1016-2.2071c-7.6738-8.0781-15.959-16.0898-24.6582-23.8496a319.66789,319.66789,0,0,0,46.207-57.789l1.5547-2.502-14.2382-12.0176Z" fill="none" stroke="#ae003f" stroke-miterlimit="10"/><path d="M237.281,10.05316v105.5723l13.7969,12.8808,2.3028-1.8574a261.19554,261.19554,0,0,0,50.2968-53.8965l1.6914-2.4199-15.5468-14.5078-2.2598,3.1387a283.45121,283.45121,0,0,1-29.0293,34.1621V10.05316Z" fill="none" stroke="#ae003f" stroke-miterlimit="10"/><path d="M198.24781,13.07076l-.1464,3.2519c-.4258,9.5508-.2344,18.2305-.0508,26.6211.6133,27.9922,1.0566,48.2168-23.4473,65.6875l-3.0293,2.1621,14.0703,16.4473,2.5215-1.7168c34.6309-23.5684,33.6817-53.9687,32.3672-96.041-.1328-4.2305-.2695-8.5899-.375-13.0879l-.0762-3.3242Z" fill="none" stroke="#ae003f" stroke-miterlimit="10"/><path d="M114.76351,8.73876l11.9648,15.375H91.867c.9883-2.4473,1.8203-4.7266,2.5449-6.9629l1.0332-3.1973-20.8769-7.0762-1.0762,3.2559c-7.334,22.1367-21,41.1152-40.6231,56.4043l-2.9375,2.291,14.5684,15.5879,2.4668-1.9961c14.1094-11.4277,25.541-23.8848,34.0019-37.0547h35.7637a101.15639,101.15639,0,0,1-11.3574,24.4512l-21.5469-13.7461-11.4316,17.9199,19.4668,12.4141c-11.2403,11.123-25.2442,19.791-41.6895,25.7871l-3.9336,1.4336,11.7578,18.9668,2.6543-1.0645c25.918-10.3867,70.92-36.998,81.1211-98.4844l.3907-2.3496-6.8067-3.8476,6.2832-4.8867L125.09751.70156Z" fill="none" stroke="#ff003e" stroke-miterlimit="10"/><rect x="140.06812" y="1.88073" width="13.09287" height="26.93765" transform="matrix(0.78922, -0.61412, 0.61412, 0.78922, 21.47762, 93.27377)" fill="none" stroke="#ff003e" stroke-miterlimit="10"/><path d="M309.68931,9.25626v21.2539h92.8496a338.61126,338.61126,0,0,1-32.043,37.2403c-9.7695-7.8887-19.875-15.375-30.0762-22.2891l-2.5371-1.7187-13.7598,16.3066,3.1915,2.1113a385.76871,385.76871,0,0,1,69.8574,58.9551l2.6172,2.8164,13.7617-16.3105-2.1016-2.2071c-7.6738-8.0781-15.959-16.0898-24.6582-23.8496a319.66789,319.66789,0,0,0,46.207-57.789l1.5547-2.502-14.2382-12.0176Z" fill="none" stroke="#ff003e" stroke-miterlimit="10"/><path d="M230.281,7.05316v105.5723l13.7969,12.8808,2.3028-1.8574a261.19554,261.19554,0,0,0,50.2968-53.8965l1.6914-2.4199-15.5468-14.5078-2.2598,3.1387a283.45121,283.45121,0,0,1-29.0293,34.1621V7.05316Z" fill="none" stroke="#ff003e" stroke-miterlimit="10"/><path d="M191.24781,10.07076l-.1464,3.2519c-.4258,9.5508-.2344,18.2305-.0508,26.6211.6133,27.9922,1.0566,48.2168-23.4473,65.6875l-3.0293,2.1621,14.0703,16.4473,2.5215-1.7168c34.6309-23.5684,33.6817-53.9687,32.3672-96.041-.1328-4.2305-.2695-8.5899-.375-13.0879l-.0762-3.3242Z" fill="none" stroke="#ff003e" stroke-miterlimit="10"/><path d="M47.58571,83.24656q-5.5752,5.21775-14.9375,5.2168H19.449V69.10976H4.99981v31.2168h28.3613a39.84236,39.84236,0,0,0,17.9707-3.8808A29.05414,29.05414,0,0,0,63.46071,85.522a30.74272,30.74272,0,0,0,4.3262-16.4122H53.16Q53.16,78.03071,47.58571,83.24656Z" fill="url(#ad70c91d-a224-43f3-bec9-6fe33827646f)"/><polygon points="123.258 75.979 103.459 75.979 106.305 69.11 92.4 69.11 78.488 100.327 93.293 100.327 98.822 86.948 127.806 86.948 133.336 100.327 148.498 100.327 134.541 69.11 120.414 69.11 123.258 75.979" fill="url(#a35aca7a-3939-4160-8863-adf153e8272d)"/><path d="M190.14631,71.43016h-11.7715v-2.3204h-14.4492v31.2168h14.4492V82.93406h13.2871l12.041,17.3925h15.5176l-14.002-20.0683a21.20018,21.20018,0,0,0,9.4981-7.7129,18.98521,18.98521,0,0,0,1.7871-3.4356h-17.1738C197.10721,70.65276,194.05251,71.43016,190.14631,71.43016Z" fill="url(#eb8b5b10-8878-41cd-887f-76162c5cf957)"/><path d="M280.13261,72.32076q0,8.65425-3.5683,12.7109-3.5685,4.05765-10.3438,4.0567-13.9131,0-13.9141-16.7676v-3.211h-14.4472v3.7461q0,13.7373,7.4472,21.1387,7.44435,7.4034,20.8243,7.4024,13.37685,0,20.8242-7.4024,7.4472-7.40325,7.4472-21.1387v-3.7461h-14.2695Z" fill="url(#f9136bef-6d64-4008-b4c0-e90096b3cbe6)"/><polygon points="374.4 100.327 387.957 100.327 387.867 69.11 374.326 69.11 374.4 100.327" fill="url(#b2829890-24be-4dc3-9865-daf5542bd588)"/><rect x="317.58961" y="69.10976" width="13.5567" height="31.2168" fill="url(#fb98ff37-6edb-474d-95b8-91084ec12a94)"/><polygon points="352.906 76.692 348.34 69.11 334.455 69.11 349.43 93.727 355.939 93.727 370.596 69.11 357.402 69.11 352.906 76.692" fill="url(#e412575a-b5b9-41b6-a5b4-558e9aaaa7e5)"/><path d="M51.33181,41.77586a39.86709,39.86709,0,0,0-17.9707-3.8789H4.99981v31.2128H19.449V49.75826h13.1992q9.3633,0,14.9375,5.2168,5.57235,5.21775,5.5743,14.1347h14.6269a30.73371,30.73371,0,0,0-4.3262-16.4082A29.05769,29.05769,0,0,0,51.33181,41.77586Z" fill="url(#eaf41d39-6a78-40a3-bf90-cb82a702cef8)"/><polygon points="120.582 37.897 106.314 37.897 92.4 69.11 106.305 69.11 113.359 52.077 120.414 69.11 134.541 69.11 120.582 37.897" fill="url(#a7c6a521-9151-4d72-a5dc-d45b39e0883c)"/><path d="M205.35141,40.66056A34.69738,34.69738,0,0,0,190.949,37.897h-27.0234v31.2128h14.4492V49.66836h11.7715q6.5097,0,9.8984,2.8106,3.3897,2.80665,3.3906,8.0703a9.91625,9.91625,0,0,1-3.3906,8.0273c-.2246.1895-.4687.3633-.7148.5332h17.1738a22.75082,22.75082,0,0,0,1.5566-8.5605,21.61967,21.61967,0,0,0-3.2988-12.0391A21.3976,21.3976,0,0,0,205.35141,40.66056Z" fill="url(#b71a79a6-5e57-4a29-bf6e-b5fe503c6c4a)"/><rect x="237.85921" y="37.89696" width="14.4472" height="31.2128" fill="url(#aafaec0f-3fce-4608-9e86-f5be4acd077d)"/><rect x="280.13261" y="37.89696" width="14.2695" height="31.2128" fill="url(#aa2e9a80-afd3-4076-ad45-c0dfa59f19d3)"/><polygon points="387.777 37.897 375.916 37.897 357.402 69.11 370.596 69.11 374.312 62.868 374.326 69.11 387.867 69.11 387.777 37.897" fill="url(#a494fc04-f75c-4f42-82cb-adce04158b26)"/><polygon points="329.541 37.897 317.59 37.897 317.59 69.11 331.146 69.11 331.146 63.67 334.455 69.11 348.34 69.11 329.541 37.897" fill="url(#f5a8de2c-946a-4e6b-8414-37d4cc10b3f2)"/><polygon points="448.246 75.979 428.445 75.979 431.291 69.11 417.387 69.11 403.474 100.327 418.279 100.327 423.808 86.948 452.793 86.948 458.322 100.327 473.484 100.327 459.525 69.11 445.4 69.11 448.246 75.979" fill="url(#af219084-71fc-40fe-824a-e3d26e979b84)"/><polygon points="445.568 37.897 431.301 37.897 417.387 69.11 431.291 69.11 438.346 52.077 445.4 69.11 459.525 69.11 445.568 37.897" fill="url(#f2798039-3264-40c2-8887-d5856a84bf8d)"/><path d="M190.949,37.897a34.68117,34.68117,0,0,1,14.4024,2.7646,21.38909,21.38909,0,0,1,9.4101,7.8486,21.622,21.622,0,0,1,3.2988,12.0391,22.75979,22.75979,0,0,1-1.5566,8.5615,19.00951,19.00951,0,0,1-1.7871,3.4346,21.20208,21.20208,0,0,1-9.4981,7.7139l14.002,20.0673h-15.5176l-12.041-17.3916h-13.2871v17.3916h-14.4492V37.897H190.949m-12.5742,33.5332h11.7715c3.9062,0,6.9609-.7774,9.1836-2.3194.2461-.1709.4902-.3447.7148-.5342a9.91625,9.91625,0,0,0,3.3906-8.0273q0-5.2617-3.3906-8.0703-3.38955-2.811-9.8984-2.8106h-11.7715v21.7618M190.949,34.897h-30.0234v68.4296h20.4492V85.935h8.7148l11.1465,16.0996.8946,1.292h22.8408l-3.291-4.7168-12.0381-17.2529a23.3638,23.3638,0,0,0,7.5732-7.1523,22.14732,22.14732,0,0,0,2.0713-3.9737,25.8418,25.8418,0,0,0,1.7734-9.6816,23.64943,23.64943,0,0,0-14.4716-22.6211A37.80141,37.80141,0,0,0,190.949,34.897Zm-9.5742,17.7714h8.7715c3.6015,0,6.2871.7129,7.9844,2.1202,1.5507,1.2851,2.3046,3.1689,2.3046,5.7607a7.01289,7.01289,0,0,1-2.3222,5.7324c-.1348.1133-.3262.2481-.4951.3653-1.7041,1.1826-4.2188,1.7832-7.4717,1.7832h-8.7715V52.66836Z" fill="url(#a1980203-6fac-4752-b505-e37675c264ac)"/><path d="M33.36111,37.897a39.86709,39.86709,0,0,1,17.9707,3.8789,29.05769,29.05769,0,0,1,12.1289,10.9257,30.7348,30.7348,0,0,1,4.3262,16.4092,30.74163,30.74163,0,0,1-4.3262,16.4112,29.063,29.063,0,0,1-12.1289,10.9248,39.85537,39.85537,0,0,1-17.9707,3.8798H4.99981V37.897h28.3613M19.449,88.46426h13.1992q9.3633,0,14.9375-5.2168,5.57235-5.21775,5.5743-14.1367,0-8.91645-5.5743-14.1357-5.5752-5.2164-14.9375-5.2168H19.449v38.706M33.36111,34.897H1.99981v68.4296h31.3613a43.00273,43.00273,0,0,0,19.3057-4.1933,32.14909,32.14909,0,0,0,13.3506-12.041,33.83488,33.83488,0,0,0,4.7695-17.9815,33.82425,33.82425,0,0,0-4.7695-17.9785,32.12448,32.12448,0,0,0-13.3506-12.043,43.00851,43.00851,0,0,0-19.3057-4.1923ZM22.449,52.75826h10.1992c5.502,0,9.7188,1.4414,12.8887,4.4072,3.1113,2.9131,4.6231,6.8213,4.6231,11.9453,0,5.125-1.5118,9.0332-4.625,11.9473-3.168,2.9648-7.3848,4.4062-12.8868,4.4062H22.449v-32.706Z" fill="url(#b3ade456-70d6-42fc-b481-640e545d00fc)"/><path d="M120.58181,37.897l13.959,31.2138,13.957,31.2158h-15.1621l-5.5293-13.3789H98.82211l-5.5293,13.3789H78.48811l13.9121-31.2158,13.9141-31.2138h14.2675m-17.123,38.082h19.7988l-2.8437-6.8682-7.0547-17.0342-7.0547,17.0342-2.8457,6.8682m19.0683-41.082H104.367l-.793,1.7783L89.66,67.88906,75.74781,99.105l-1.8818,4.2216h21.4326l.7657-1.8545,4.7636-11.5244h24.9727l4.7637,11.5244.7656,1.8545h21.7949l-1.8887-4.2246-13.957-31.2158-13.958-31.2139-.794-1.7753ZM107.949,72.979l1.127-2.7207,4.2832-10.3408,4.2832,10.3408,1.126,2.7207Z" fill="url(#a2f4ad7b-01b5-40cb-9836-4141adff7085)"/><path d="M294.40211,37.897v34.9599q0,13.7358-7.4472,21.1377-7.44735,7.4034-20.8242,7.4024-13.377,0-20.8243-7.4024-7.4472-7.40325-7.4472-21.1377V37.897h14.4472v34.4248q0,16.76805,13.9141,16.7666,6.7734,0,10.3438-4.0567,3.56835-4.05765,3.5683-12.7099V37.897h14.2695m3-3h-20.2695v37.4248c0,4.9902-.9492,8.6005-2.8203,10.7285-1.7988,2.0439-4.4453,3.0381-8.0918,3.0381-5.0801,0-10.9141-1.5645-10.9141-13.7666V34.897h-20.4472v37.9599c0,9.9414,2.8047,17.7686,8.332,23.2656,5.5215,5.4903,13.2402,8.2745,22.9395,8.2745,9.6992,0,17.416-2.7842,22.9394-8.2745,5.5293-5.497,8.332-13.3242,8.332-23.2656V34.897Z" fill="url(#ba6d9dfa-3b46-461f-bfa1-46874b1eb812)"/><path d="M387.77711,37.897l.0899,31.2138.0898,31.2158h-13.5566l-.0742-31.2158-.0137-6.2431-3.7168,6.2431L355.93931,93.727h-6.5098l-14.9746-24.6162-3.3086-5.4404v36.6562h-13.5567V37.897h11.9512l18.7988,31.2138,4.5664,7.5811,4.4961-7.5811,18.5137-31.2138h11.8613m2.9922-3h-16.5625l-.8711,1.4697-18.5136,31.2138-1.9356,3.2637L350.91,67.563l-18.7989-31.2139-.875-1.4521h-16.6465v68.4296h19.5567V74.37546l12.7207,20.9111.8769,1.4404h9.9004l.8731-1.4648L371.33771,73.73l.0625,26.6035.0078,2.9931h19.5586l-.0098-3.0087L390.867,69.102l-.0899-31.2138-.0078-2.9912Z" fill="url(#b8860ea3-3436-4573-9f60-bfc070fb5b04)"/><path d="M445.56821,37.897l13.957,31.2138,13.959,31.2158h-15.1621l-5.5293-13.3789h-28.9844l-5.5293,13.3789h-14.8047l13.9121-31.2158,13.9141-31.2138h14.2676m-17.1231,38.082h19.8008l-2.8457-6.8682-7.0547-17.0342-7.0547,17.0342-2.8457,6.8682m19.0684-41.082h-18.1602l-.793,1.7783-13.914,31.2138-13.9121,31.2168-1.8809,4.2207H420.285l.7675-1.8545,4.7618-11.5244h24.9726l4.7637,11.5244.7656,1.8545h21.7969l-1.8906-4.2246-13.959-31.2158-13.9571-31.2139-.7929-1.7753Zm-14.5782,38.082,1.127-2.7197,4.2832-10.3418,4.2832,10.3408,1.127,2.7207Z" fill="url(#f3a4da63-9cae-4c0d-8c61-f4b31c828087)"/><path d="M190.94922,34.89693a37.79305,37.79305,0,0,1,15.63867,3.03125,23.64835,23.64835,0,0,1,14.47266,22.6211,25.84172,25.84172,0,0,1-1.77344,9.68164,22.14758,22.14758,0,0,1-2.07227,3.97363,23.35136,23.35136,0,0,1-7.57226,7.15234l12.03711,17.25293,3.291,4.7168H202.13086l-.89453-1.292L190.08984,85.935H181.375v17.3916H160.92578V34.89693h30.02344M181.375,68.43013h8.77148c3.252,0,5.76758-.60058,7.47071-1.7832.16992-.11719.36133-.25195.49609-.36523a7.013,7.013,0,0,0,2.32227-5.73242c0-2.5918-.75391-4.47559-2.30469-5.76075-1.69727-1.40722-4.38281-2.12011-7.98438-2.12011H181.375V68.43013m9.57422-35.5332H158.92578v72.42969H183.375V87.935h5.667l10.54981,15.238.89453,1.292.59668.86157h27.72168l-2.19385-3.14453-3.291-4.7168-10.85742-15.562A25.03315,25.03315,0,0,0,218.88135,75.31a24.11737,24.11737,0,0,0,2.26074-4.33155,27.82849,27.82849,0,0,0,1.91846-10.42919,25.6433,25.6433,0,0,0-15.648-24.44312,39.76349,39.76349,0,0,0-16.46338-3.20923ZM183.375,54.66842h6.77148c3.07862,0,5.39844.574,6.708,1.65966.67871.56275,1.58106,1.61231,1.58106,4.2212,0,2.55151-.91895,3.62036-1.61035,4.20239-.0918.07739-.22608.168-.34327.24878-1.34912.93652-3.53759,1.42968-6.33545,1.42968H183.375V54.66842Z" fill="#1d1d1b"/><path d="M33.36133,34.89693A43.008,43.008,0,0,1,52.667,39.08931a32.12457,32.12457,0,0,1,13.35059,12.043A33.82369,33.82369,0,0,1,70.78711,69.1108a33.834,33.834,0,0,1-4.76953,17.98144A32.14809,32.14809,0,0,1,52.667,99.13326a43.00221,43.00221,0,0,1-19.30566,4.19336H2V34.89693H33.36133M22.44922,85.46431H32.64844c5.502,0,9.71875-1.4414,12.88672-4.40625,3.11328-2.91406,4.625-6.82226,4.625-11.94726,0-5.124-1.51172-9.03223-4.623-11.94531-3.16992-2.96582-7.38672-4.40723-12.88867-4.40723H22.44922V85.46431M33.36133,32.89693H0v72.42969H33.36133a44.97692,44.97692,0,0,0,20.1958-4.40234A34.11679,34.11679,0,0,0,67.72168,88.13887,35.80025,35.80025,0,0,0,72.78711,69.1108a35.78992,35.78992,0,0,0-5.06494-19.02466,34.09439,34.09439,0,0,0-14.165-12.78784,44.98636,44.98636,0,0,0-20.1958-4.40137ZM24.44922,54.75826h8.19922c4.97168,0,8.74072,1.26514,11.52246,3.86768,2.68408,2.51318,3.98926,5.94311,3.98926,10.48486,0,4.54272-1.30567,7.9729-3.9917,10.48706-2.77979,2.60181-6.54834,3.86645-11.52,3.86645H24.44922v-28.706Z" fill="#1d1d1b"/><path d="M122.52734,34.89693l.794,1.77539,13.958,31.21387,13.957,31.21582,1.88867,4.22461H131.33008l-.76563-1.85449-4.76367-11.52442H100.82812l-4.76367,11.52442-.76562,1.85449H73.86621l1.88184-4.22168L89.66016,67.88912l13.91406-31.21387.793-1.77832h18.16015M107.94922,72.979h10.81933l-1.126-2.7207-4.2832-10.34082-4.28321,10.34082-1.127,2.7207m15.87451-40.082H103.06934l-.52881,1.18555-.793,1.77832L87.8335,67.07491,73.92139,98.29073l-1.88184,4.22168-1.25439,2.81421H96.63672l.51074-1.23682.76563-1.85449,4.25244-10.2876h22.29785l4.25293,10.28833.76514,1.85376.51074,1.23682H156.21l-1.25928-2.81616L153.062,98.28585,139.105,67.06978,125.147,35.85592l-.79394-1.77539-.5293-1.1836ZM110.94238,70.979l2.417-5.8352,2.417,5.8352Z" fill="#1d1d1b"/><path d="M297.40234,34.89693v37.96c0,9.94141-2.80273,17.76856-8.332,23.26563-5.52343,5.49023-13.24023,8.27441-22.93945,8.27441s-17.418-2.78418-22.93945-8.27441c-5.52735-5.49707-8.332-13.32422-8.332-23.26563v-37.96h20.44726V72.32174c0,12.20214,5.834,13.7666,10.91406,13.7666,3.64649,0,6.293-.99414,8.0918-3.03809,1.87109-2.12793,2.82031-5.73828,2.82031-10.72851V34.89693h20.26953m2-2H275.13281V72.32174c0,4.427-.80322,7.68017-2.32226,9.408-1.39649,1.58691-3.55225,2.35864-6.58985,2.35864-8.22509,0-8.91406-6.07373-8.91406-11.7666V32.89693H232.85938v39.96c0,10.49121,3.00146,18.79614,8.92187,24.68384,5.91016,5.87647,14.10254,8.8562,24.34961,8.8562,10.24512,0,18.4375-2.97949,24.34961-8.856,5.91992-5.88574,8.92187-14.19067,8.92187-24.68408v-39.96Z" fill="#1d1d1b"/><path d="M390.76953,34.89693l.00781,2.99121.08985,31.21387.08984,31.21582.00977,3.00879H371.4082l-.00781-2.99317-.0625-26.60351L358.51758,95.26217l-.87305,1.46484h-9.90039l-.877-1.44043L334.14648,74.37545v28.95117H314.58984V34.89693h16.64649l.875,1.45215L350.91016,67.563l1.97656,3.28125,1.93555-3.26367,18.51367-31.21387.87109-1.46973h16.5625m1.99463-2H373.06738l-.58105.98023-.8711,1.46972L353.10205,66.56026l-.22851.38574-.25-.415L333.82471,35.31734l-.87549-1.45264-.583-.96777H312.58984v72.42969h23.55664V81.51143l9.01221,14.81446.877,1.44116.58448.96h12.16064l.582-.97607.87256-1.46485L369.355,80.96993l.04541,19.36816.00781,2.99366.00537,1.99487h23.55957L392.9668,103.32l-.00977-3.00879-.08984-31.21509-.08985-31.21387-.00781-2.99048-.00537-1.99487Z" fill="#1d1d1b"/><path d="M447.51367,34.89693l.793,1.77539,13.957,31.21387,13.959,31.21582,1.89062,4.22461H456.31641l-.76563-1.85449-4.76367-11.52442H425.81445l-4.76172,11.52442-.76757,1.85449H398.85352l1.88086-4.2207,13.9121-31.2168,13.91407-31.21387.793-1.77832h18.16015M432.93555,72.979h10.82031l-1.12695-2.7207L438.3457,59.91744l-4.2832,10.3418-1.127,2.71972m15.87549-40.082H428.05566l-.5288,1.18555-.793,1.77832L412.81982,67.07491l-13.91211,31.2168-1.88085,4.22094-1.2544,2.814h25.84961l.51123-1.23511.76758-1.85449,4.251-10.28931h22.29785l4.25293,10.28833.76513,1.85376.51075,1.23682h26.2207l-1.26026-2.8169-1.89062-4.2246-13.959-31.21534-13.957-31.21386-.79248-1.77466-.5288-1.18433ZM435.9292,70.979l2.4165-5.835,2.417,5.835Z" fill="#1d1d1b"/></g></g></svg>
