<svg width="494" height="360" viewBox="0 0 494 360" fill="none" xmlns="http://www.w3.org/2000/svg">
<g clip-path="url(#clip0)">
<path d="M138.2 128.9C144.8 132.9 149.7 114.9 139 111.9C126.1 108.3 120.9 127.9 127.5 135.9C134.1 143.9 157.9 147.9 160.4 130.9C162.9 113.9 160.4 83.9 139.8 86.9C119.2 89.9 85.5 105.9 93.8 134.9" stroke="white" stroke-width="2" stroke-miterlimit="10"/>
<path d="M135.5 160.8C139.1 150.5 146.5 168.1 137.7 168.3C133.6 168.4 130.7 165.3 130.6 160.3C130.4 151.7 139.4 150.9 144 154.9C148.6 158.9 153.1 170.6 142.9 174.2C132.7 177.8 123.9 175.3 121.2 162.7C121.2 178.8 99.3 178.4 102.3 155.4C93.2 171.7 81.7 168.2 76.2 156.2C74 170.4 55.6 170.2 47 159.4C43.5 155 37.2 145.7 29.7 145.3C20.7 144.8 15.9 154.7 5 146.4C17.9 150.2 20.3 137.6 29.4 137.8C40.3 138 46.1 144.9 48.9 147.7C58 156.9 70.1 149.6 66.8 137.2C61.8 117.9 80.4 107.8 93.8 117.7" stroke="white" stroke-width="2" stroke-miterlimit="10"/>
<path d="M137.3 175.7C134.8 186.1 163.9 191 160.6 175.6" stroke="white" stroke-width="2" stroke-miterlimit="10"/>
<path d="M226 143.7C234.2 172.7 200.5 188.7 180 191.7C159.4 194.7 157 164.7 159.4 147.7C161.9 130.7 185.7 134.7 192.3 142.7C198.9 150.7 193.7 170.3 180.8 166.7C170.1 163.7 175.3 145.1 181.6 149.7C188.3 154.6 183.8 158.1 181.5 158.4" stroke="white" stroke-width="2" stroke-miterlimit="10"/>
<path d="M174.6 108.9C171 119.2 163.6 101.6 172.4 101.4C176.5 101.3 179.4 104.4 179.5 109.4C179.7 118 170.7 118.8 166.1 114.8C161.5 110.8 157 99.1 167.2 95.5C177.4 91.9 186.2 94.4 188.9 107C188.9 90.9 220.4 100.2 217.4 123.1C226.5 106.8 238 110.3 243.5 122.3C245.7 108.1 264.1 108.3 272.7 119.1C276.2 123.5 282.5 132.8 290 133.2C299 133.7 303.8 123.8 314.7 132.1C301.8 128.3 299.4 140.9 290.3 140.7C279.4 140.5 273.6 133.6 270.8 130.8C261.7 121.6 249.6 128.9 252.9 141.3C257.9 160.6 239.3 170.7 225.9 160.8" stroke="white" stroke-width="2" stroke-miterlimit="10"/>
<path d="M218.4 141.8C222.8 144.1 228.3 144.8 234.3 141.1" stroke="white" stroke-width="2" stroke-miterlimit="10"/>
<path d="M155.8 94.1C169.1 83.5 188.4 85.1 196.6 99.1" stroke="white" stroke-width="2" stroke-miterlimit="10"/>
<path d="M162.8 35.1L173.2 27L156.6 5.60001L146.2 13.7L149.2 17.6H147.4L138.1 5.60001L127.7 13.7L139.8 29.2H104.7C105.7 26.7 106.5 24.4 107.3 22.2L108.3 19L87.3 11.9L86.2 15.2C78.8 37.5 65.1 56.6 45.3 72L42.3 74.3L57 90L59.5 88C73.7 76.5 85.2 63.9 93.7 50.7H129.7C126.9 59.6 123.1 67.8 118.3 75.3L96.5 61.4L85 79.4L104.6 91.9C93.3 103.1 79.2 111.8 62.6 117.9L58.6 119.3L70.4 138.4L73.1 137.3C99.2 126.8 144.5 100 154.8 38.1L155.2 35.7L148.3 31.8L154.6 26.9L147.8 18.1H149.6L162.8 35.1Z" fill="url(#paint0_linear)"/>
<path d="M230.5 318.9C234.7 321.4 237.8 310 231 308.1C222.8 305.8 219.5 318.3 223.7 323.4C227.9 328.5 243.1 331 244.7 320.2C246.3 309.4 244.7 290.3 231.6 292.2C218.5 294.1 197 304.3 202.2 322.7" stroke="white" stroke-width="2" stroke-miterlimit="10"/>
<path d="M228.8 339.2C231.1 332.6 235.8 343.8 230.2 343.9C227.6 344 225.7 342 225.7 338.8C225.6 333.3 231.3 332.8 234.2 335.4C237.1 338 240 345.4 233.5 347.7C227 350 221.4 348.4 219.6 340.4C219.6 350.6 205.6 350.4 207.6 335.8C201.8 346.1 194.4 343.9 190.9 336.3C189.5 345.3 177.8 345.2 172.2 338.3C169.9 335.5 166 329.6 161.2 329.4C155.4 329.1 152.4 335.4 145.4 330.1C153.6 332.5 155.2 324.5 161 324.6C167.9 324.7 171.6 329.1 173.4 330.9C179.2 336.7 186.9 332.1 184.8 324.2C181.6 311.9 193.5 305.5 202.1 311.8" stroke="white" stroke-width="2" stroke-miterlimit="10"/>
<path d="M230 348.6C228.4 355.2 247 358.3 244.8 348.6" stroke="white" stroke-width="2" stroke-miterlimit="10"/>
<path d="M286.6 328.3C291.8 346.7 270.3 356.9 257.2 358.8C244.1 360.7 242.5 341.6 244.1 330.8C245.7 320 260.9 322.5 265.1 327.6C269.3 332.7 266 345.2 257.8 342.9C251 341 254.3 329.2 258.3 332.1C262.6 335.2 259.7 337.4 258.3 337.6" stroke="white" stroke-width="2" stroke-miterlimit="10"/>
<path d="M253.8 306.2C251.5 312.8 246.8 301.6 252.4 301.5C255 301.4 256.9 303.4 256.9 306.6C257 312.1 251.3 312.6 248.4 310C245.5 307.4 242.6 300 249.1 297.7C255.6 295.4 261.2 297 263 305C263 294.8 283.1 300.6 281.2 315.2C287 304.9 294.4 307.1 297.9 314.7C299.3 305.7 311.1 305.8 316.6 312.7C318.9 315.5 322.8 321.4 327.6 321.6C333.4 321.9 336.4 315.6 343.4 320.9C335.2 318.5 333.6 326.5 327.8 326.4C320.9 326.3 317.2 321.9 315.4 320.1C309.6 314.3 301.9 318.9 304 326.8C307.2 339.1 295.3 345.5 286.7 339.2" stroke="white" stroke-width="2" stroke-miterlimit="10"/>
<path d="M281.7 327.1C284.5 328.6 288 329 291.8 326.6" stroke="white" stroke-width="2" stroke-miterlimit="10"/>
<path d="M241.8 296.8C250.3 290 262.6 291.1 267.8 300" stroke="white" stroke-width="2" stroke-miterlimit="10"/>
<path d="M343 108.6C348.4 112.1 352.5 96.3 343.7 93.7C333 90.5 328.8 107.8 334.2 114.8C339.6 121.8 359.3 125.3 361.4 110.4C363.4 95.5 361.4 69.1 344.4 71.7C327.4 74.3 299.6 88.4 306.4 113.9" stroke="white" stroke-width="2" stroke-miterlimit="10"/>
<path d="M340.8 136.7C343.8 127.6 349.9 143.1 342.6 143.3C339.2 143.4 336.8 140.7 336.8 136.2C336.7 128.6 344.1 128 347.8 131.5C351.6 135 355.3 145.3 346.9 148.5C338.5 151.7 331.2 149.5 329 138.4C329 152.5 310.9 152.2 313.4 132C305.9 146.3 296.4 143.3 291.8 132.7C290 145.1 274.8 145 267.6 135.5C264.7 131.6 259.5 123.5 253.3 123.1C245.8 122.7 241.9 131.3 232.9 124.1C243.6 127.5 245.6 116.4 253 116.5C262 116.7 266.8 122.7 269.1 125.2C276.6 133.3 286.6 126.8 283.9 116C279.7 99 295.1 90.2 306.2 98.9" stroke="white" stroke-width="2" stroke-miterlimit="10"/>
<path d="M342.3 149.7C340.2 158.8 364.3 163.1 361.5 149.7" stroke="white" stroke-width="2" stroke-miterlimit="10"/>
<path d="M415.5 121.6C422.3 147.1 394.5 161.1 377.5 163.8C360.5 166.4 358.5 140.1 360.5 125.1C362.5 110.2 382.2 113.7 387.7 120.7C393.1 127.7 388.9 145 378.2 141.8C369.4 139.2 373.7 122.8 378.9 126.9C384.5 131.2 380.7 134.3 378.8 134.5" stroke="white" stroke-width="2" stroke-miterlimit="10"/>
<path d="M373.1 91.1C370.1 100.2 364 84.7 371.3 84.5C374.7 84.4 377.1 87.1 377.1 91.6C377.2 99.2 369.8 99.8 366.1 96.3C362.3 92.8 358.6 82.5 367 79.3C375.4 76.1 382.7 78.3 384.9 89.4C384.9 75.3 410.9 83.4 408.4 103.6C415.9 89.3 425.4 92.3 430 102.9C431.8 90.5 447 90.6 454.2 100.1C457.1 104 462.3 112.1 468.5 112.5C476 112.9 479.9 104.3 488.9 111.5C478.3 108.1 476.2 119.2 468.8 119.1C459.8 118.9 455 112.9 452.7 110.4C445.2 102.3 435.2 108.8 437.9 119.6C442.1 136.6 426.7 145.4 415.6 136.7" stroke="white" stroke-width="2" stroke-miterlimit="10"/>
<path d="M409.3 120C412.9 122.1 417.5 122.6 422.4 119.4" stroke="white" stroke-width="2" stroke-miterlimit="10"/>
<path d="M357.6 78.1C368.6 68.8 384.5 70.2 391.3 82.5" stroke="white" stroke-width="2" stroke-miterlimit="10"/>
<path d="M329.4 259.8C322.8 255.8 317.9 273.8 328.6 276.8C341.5 280.4 346.7 260.8 340.1 252.8C333.5 244.8 309.7 240.8 307.2 257.8C304.7 274.8 307.2 304.8 327.8 301.8C348.4 298.8 382.1 282.8 373.8 253.8" stroke="white" stroke-width="2" stroke-miterlimit="10"/>
<path d="M332.1 227.9C328.5 238.2 321.1 220.6 329.9 220.4C334 220.3 336.9 223.4 337 228.4C337.2 237 328.2 237.8 323.6 233.8C319 229.8 314.5 218.1 324.7 214.5C334.9 210.9 343.7 213.4 346.4 226C346.4 209.9 368.3 210.3 365.3 233.3C374.4 217 385.9 220.5 391.4 232.5C393.6 218.3 412 218.5 420.6 229.3C424.1 233.7 430.4 243 437.9 243.4C446.9 243.9 451.7 234 462.6 242.3C449.7 238.5 447.3 251.1 438.2 250.9C427.3 250.7 421.5 243.8 418.7 241C409.6 231.8 397.5 239.1 400.8 251.5C405.8 270.8 387.2 280.9 373.8 271" stroke="white" stroke-width="2" stroke-miterlimit="10"/>
<path d="M330.3 213C332.8 202.6 303.7 197.7 307 213.1" stroke="white" stroke-width="2" stroke-miterlimit="10"/>
<path d="M241.6 244.9C233.4 215.9 267.1 199.9 287.6 196.9C308.2 193.9 310.6 223.9 308.2 240.9C305.7 257.9 281.9 253.9 275.3 245.9C268.7 237.9 273.9 218.3 286.8 221.9C297.5 224.9 292.3 243.5 286 238.9C279.3 234 283.8 230.5 286.1 230.2" stroke="white" stroke-width="2" stroke-miterlimit="10"/>
<path d="M293 279.7C296.6 269.4 304 287 295.2 287.2C291.1 287.3 288.2 284.2 288.1 279.2C287.9 270.6 296.9 269.8 301.5 273.8C306.1 277.8 310.6 289.5 300.4 293.1C290.2 296.7 281.4 294.2 278.7 281.6C278.7 297.7 247.2 288.4 250.2 265.5C241.1 281.8 229.6 278.3 224.1 266.3C221.9 280.5 203.5 280.3 194.9 269.5C191.4 265.1 185.1 255.8 177.6 255.4C168.6 254.9 163.8 264.8 152.9 256.5C165.8 260.3 168.2 247.7 177.3 247.9C188.2 248.1 194 255 196.8 257.8C205.9 267 218 259.7 214.7 247.3C209.7 228 228.3 217.9 241.7 227.8" stroke="white" stroke-width="2" stroke-miterlimit="10"/>
<path d="M249.2 246.9C244.8 244.6 239.3 243.9 233.3 247.6" stroke="white" stroke-width="2" stroke-miterlimit="10"/>
<path d="M311.8 294.5C298.5 305.1 279.2 303.5 271 289.5" stroke="white" stroke-width="2" stroke-miterlimit="10"/>
<path d="M186.9 257.9C181.5 254.6 177.5 269.4 186.2 271.9C196.8 274.9 201 258.8 195.6 252.2C190.2 245.6 170.6 242.3 168.6 256.3C166.6 270.3 168.6 294.9 185.5 292.4C202.4 289.9 230 276.8 223.3 253" stroke="white" stroke-width="2" stroke-miterlimit="10"/>
<path d="M189.1 231.7C186.1 240.2 180.1 225.7 187.3 225.6C190.7 225.5 193 228 193.1 232.2C193.2 239.3 185.9 239.9 182.1 236.6C178.4 233.3 174.6 223.7 183 220.7C191.4 217.7 198.6 219.8 200.8 230.1C200.8 216.9 218.7 217.2 216.3 236.1C223.8 222.8 233.2 225.6 237.7 235.5C239.5 223.9 254.6 224 261.7 232.9C264.6 236.5 269.7 244.1 275.9 244.4C283.3 244.8 287.3 236.7 296.2 243.5C285.6 240.4 283.6 250.7 276.2 250.6C267.3 250.4 262.5 244.8 260.2 242.4C252.8 234.9 242.8 240.9 245.5 251C249.6 266.9 234.3 275.1 223.3 267" stroke="white" stroke-width="2" stroke-miterlimit="10"/>
<path d="M187.6 219.5C189.6 211 165.8 206.9 168.5 219.5" stroke="white" stroke-width="2" stroke-miterlimit="10"/>
<path d="M114.8 245.7C108.1 221.9 135.7 208.8 152.6 206.3C169.5 203.8 171.5 228.5 169.5 242.4C167.5 256.4 147.9 253.1 142.5 246.5C137.1 239.9 141.3 223.8 151.9 226.8C160.7 229.3 156.4 244.5 151.2 240.8C145.7 236.8 149.4 233.9 151.2 233.7" stroke="white" stroke-width="2" stroke-miterlimit="10"/>
<path d="M157 274.3C160 265.8 166 280.3 158.8 280.4C155.4 280.5 153.1 277.9 153 273.8C152.9 266.7 160.2 266.1 164 269.4C167.7 272.7 171.5 282.3 163.1 285.3C154.7 288.3 147.5 286.2 145.3 275.9C145.3 289.1 119.5 281.5 121.9 262.7C114.4 276 105 273.2 100.5 263.3C98.7 274.9 83.6 274.8 76.5 265.9C73.6 262.3 68.5 254.7 62.3 254.4C54.9 254 50.9 262.1 42 255.3C52.6 258.4 54.6 248.1 62 248.2C70.9 248.4 75.7 254 78 256.4C85.4 263.9 95.4 257.9 92.7 247.8C88.6 231.9 103.9 223.7 114.9 231.8" stroke="white" stroke-width="2" stroke-miterlimit="10"/>
<path d="M121 247.3C117.4 245.4 112.9 244.8 108 247.9" stroke="white" stroke-width="2" stroke-miterlimit="10"/>
<path d="M172.5 286.4C161.6 295.1 145.8 293.8 139 282.3" stroke="white" stroke-width="2" stroke-miterlimit="10"/>
<path d="M138 5.6L154.7 27L148.4 31.9L155.3 35.8L154.9 38.2C144.6 100.1 99.3 126.9 73.2 137.4L70.5 138.5L58.7 119.4L62.7 118C79.3 112 93.4 103.2 104.7 92L85 79.4L96.5 61.4L118.2 75.2C123 67.7 126.9 59.4 129.6 50.6H93.6C85.1 63.9 73.6 76.4 59.4 87.9L56.9 89.9L42.2 74.2L45.2 71.9C65 56.5 78.7 37.4 86.1 15.1L87.2 11.8L108.2 18.9L107.2 22.1C106.5 24.4 105.6 26.6 104.6 29.1H139.7L127.6 13.6L138 5.6ZM138.7 0L135.5 2.5L125.1 10.6L122 13L124.5 16.2L131.5 25.2H110.3C110.5 24.6 110.7 24 110.9 23.4L111.9 20.2L113.1 16.4L109.4 15.1L88.4 8L84.6 6.7L83.3 10.5L82.2 13.8C75.1 35.3 61.8 53.8 42.6 68.7L39.6 71L36.2 73.7L39.2 76.9L53.9 92.6L56.4 95.3L59.3 93L61.8 91C75.7 79.8 87.1 67.5 95.7 54.6H124C122 59.9 119.6 64.9 116.9 69.7L98.6 58L95.2 55.8L93 59.2L81.5 77.2L79.3 80.6L82.7 82.8L98 92.5C87.8 101.7 75.4 108.9 61.1 114.1L57.1 115.5L52.5 117.2L55.1 121.4L66.9 140.5L68.7 143.4L71.8 142.1L74.5 141C101.4 130.2 148.1 102.6 158.7 38.8L159.1 36.4L159.6 33.6L157.2 32.2L155.6 31.3L157.2 30.1L160.4 27.6L157.9 24.4L141.2 3.2L138.7 0Z" fill="white"/>
<path d="M156.6 5.6L173.2 27L162.8 35.1L146.1 13.7L156.6 5.6ZM157.3 0L154.1 2.5L143.7 10.6L140.5 13.1L143 16.3L159.7 37.7L162.2 40.9L165.4 38.4L175.8 30.3L179 27.8L176.5 24.6L159.7 3.2L157.3 0Z" fill="white"/>
<path d="M435.4 14.2L449.7 26.3L448.1 28.8C435.2 49.6 419.6 69.1 401.6 87C410.4 94.8 418.7 102.9 426.4 111L428.5 113.2L414.6 129.6L412 126.8C391.5 104.7 367.8 84.8 341.6 67.4L338.4 65.3L352.3 49L354.9 50.7C365.2 57.7 375.4 65.2 385.2 73.1C396.7 61.6 407.5 49 417.5 35.6H324V14.2H435.4ZM436.8 10.2H435.3H323.9H319.9V14.2V35.6V39.6H323.9H409.3C401.6 49.5 393.4 58.9 384.8 67.7C375.8 60.5 366.5 53.7 357.1 47.3L354.5 45.6L351.5 43.6L349.2 46.4L335.3 62.8L332.4 66.2L336.1 68.7L339.3 70.8C365.2 87.9 388.6 107.7 408.9 129.6L411.5 132.4L414.6 135.7L417.5 132.2L431.4 115.8L433.7 113.1L431.2 110.5L429.1 108.3C422.2 101.1 414.9 93.9 407.2 86.9C424.2 69.6 439 50.8 451.3 31L452.9 28.5L454.7 25.6L452.1 23.4L437.8 11.3L436.8 10.2Z" fill="white"/>
<path d="M265.4 12V95.7C276.2 84.9 286 73.3 294.6 61.3L296.9 58.1L312.6 72.7L310.9 75.1C296.6 95.5 279.6 113.8 260.2 129.4L257.9 131.3L244 118.3V12H265.4ZM269.4 8H265.4H244H240V12V118.3V120L241.3 121.2L255.2 134.2L257.7 136.6L260.4 134.4L262.7 132.5C282.3 116.7 299.6 98.2 314.1 77.4L315.8 75L317.8 72.2L315.3 69.8L299.6 55.2L296.3 52.1L293.6 55.8L291.3 59C284.6 68.3 277.3 77.2 269.3 85.8V12V8H269.4Z" fill="white"/>
<path d="M226.6 15L226.7 18.3C226.8 22.8 226.9 27.2 227.1 31.5C228.4 73.9 229.4 104.5 194.5 128.2L192 130L177.8 113.4L180.9 111.2C205.6 93.6 205.1 73.2 204.5 45C204.3 36.5 204.1 27.8 204.6 18.2L204.7 14.9H226.6V15ZM230.6 11H226.7H204.7H200.9L200.7 14.8L200.6 18.1C200.2 27.8 200.4 36.6 200.5 45.1V45.2C201.1 73.2 201.5 91.6 178.6 108L175.5 110.2L171.9 112.7L174.7 116L188.9 132.6L191.2 135.3L194.2 133.3L196.7 131.6C213.6 120.1 223.7 106.2 228.2 87.9C232.3 71.4 231.7 52.9 231 31.5C230.9 27.5 230.7 23 230.6 18.3L230.5 15L230.6 11Z" fill="white"/>
<path d="M449.7 26.3L435.4 14.2H323.9V35.6H417.4C407.4 49 396.6 61.6 385.1 73.1C375.3 65.2 365.1 57.6 354.8 50.7L352.2 49L338.3 65.4L341.5 67.5C367.7 84.8 391.4 104.8 411.9 126.9L414.5 129.7L428.4 113.3L426.3 111.1C418.6 103 410.2 94.9 401.5 87.1C419.5 69.2 435.1 49.7 448 28.9L449.7 26.3Z" fill="url(#paint1_linear)"/>
<path d="M226.7 18.4L226.6 15.1H204.6L204.5 18.4C204.1 28 204.3 36.8 204.4 45.2C205 73.4 205.5 93.8 180.8 111.4L177.7 113.6L192 130L194.5 128.3C229.4 104.6 228.4 73.9 227.1 31.6C227 27.3 226.8 22.9 226.7 18.4Z" fill="url(#paint2_linear)"/>
<path d="M294.6 61.3C285.9 73.3 276.1 84.9 265.4 95.7V12H244V118.3L257.9 131.3L260.2 129.4C279.5 113.8 296.6 95.6 310.9 75.1L312.6 72.7L296.9 58.1L294.6 61.3Z" fill="url(#paint3_linear)"/>
<path d="M137.3 11.2L149 26.3L145.8 28.8L144.9 29.5L142.7 26.7L133.1 14.4L137.3 11.2ZM89.7 16.9L103.2 21.5C102.5 23.5 101.8 25.5 100.9 27.7L98.7 33.2H104.6H139.7H142.5L146.5 35.4L150.9 37.9C140.9 97.3 97.5 123.2 72.2 133.5L64.7 121.4C81.5 115.2 95.9 106.2 107.5 94.8L111.1 91.3L106.9 88.6L90.5 78.2L97.7 66.9L116 78.6L119.4 80.7L121.6 77.3C126.6 69.5 130.6 60.9 133.5 51.7L135.1 46.5H129.7H93.7H91.5L90.3 48.3C82.1 61.1 71 73.2 57.3 84.3L48.2 74.5C68.1 59 82.1 39.6 89.7 16.9ZM138 5.60001L127.6 13.7L139.7 29.2H104.6C105.6 26.7 106.4 24.4 107.2 22.2L108.2 19L87.2 11.9L86.1 15.2C78.7 37.5 65 56.6 45.2 72L42.2 74.3L56.9 90L59.4 88C73.6 76.5 85.1 63.9 93.6 50.7H129.6C126.8 59.6 123 67.8 118.2 75.3L96.5 61.4L85 79.4L104.6 91.9C93.3 103.1 79.2 111.8 62.6 117.9L58.6 119.3L70.4 138.4L73.1 137.3C99.2 126.8 144.5 100 154.8 38.1L155.2 35.7L148.3 31.8L154.6 26.9L138 5.60001Z" fill="#1D1D1B"/>
<path d="M155.9 11.2L167.6 26.3L163.5 29.5L151.8 14.4L155.9 11.2ZM156.6 5.60001L146.2 13.7L162.9 35.1L173.3 27L156.6 5.60001Z" fill="#1D1D1B"/>
<path d="M433.9 18.2L444.5 27.1C431.8 47.4 416.4 66.6 398.8 84.2L395.8 87.2L399 90C407.5 97.6 415.7 105.5 423.2 113.4L414.6 123.6C394.1 101.6 370.5 81.7 344.5 64.4L353.1 54.2C363.1 61 373.1 68.4 382.7 76.2L385.5 78.5L388 76C399.6 64.4 410.6 51.6 420.7 38.1L425.4 31.7H417.4H327.9V18.2H433.9ZM435.4 14.2H323.9V35.6H417.4C407.4 49 396.6 61.6 385.1 73.1C375.3 65.2 365.1 57.6 354.8 50.7L352.2 49L338.3 65.4L341.5 67.5C367.7 84.8 391.4 104.8 411.9 126.9L414.5 129.7L428.4 113.3L426.3 111.1C418.6 103 410.2 94.9 401.5 87.1C419.5 69.2 435.1 49.7 448 28.9L449.6 26.4L435.4 14.2Z" fill="#1D1D1B"/>
<path d="M261.4 16V95.7V105.4L268.2 98.5C278.9 87.7 288.8 76.1 297.5 64.1L307.3 73.2C293.4 93 276.8 110.8 258.1 125.9L248 116.5V16H261.4ZM265.4 12H244V118.3L257.9 131.3L260.2 129.4C279.5 113.8 296.6 95.6 310.9 75.1L312.6 72.7L296.9 58.1L294.6 61.3C285.9 73.3 276.1 84.9 265.4 95.7V12Z" fill="#1D1D1B"/>
<path d="M222.7 19C222.8 23.5 222.9 27.8 223.1 31.7C223.8 52.6 224.3 70.6 220.5 86C216.4 102.3 207.9 114.3 192.7 124.7L183.7 114.2C209.6 95.5 209.1 73.2 208.5 45.1V45C208.3 36.8 208.1 28.3 208.5 19.1H222.7V19ZM226.6 15H204.6L204.5 18.3C204.1 27.9 204.3 36.7 204.4 45.1C205 73.3 205.5 93.7 180.8 111.3L177.7 113.5L192 130L194.5 128.3C229.4 104.6 228.4 73.9 227.1 31.6C227 27.3 226.8 22.9 226.7 18.4L226.6 15Z" fill="#1D1D1B"/>
<path d="M321.1 289.7C320.4 290.8 319.7 291.8 318.9 292.8C319.7 291.8 320.5 290.8 321.1 289.7Z" fill="url(#paint4_linear)"/>
<path d="M161.5 292.9C160.7 291.9 160 290.8 159.3 289.8C159.9 290.8 160.7 291.8 161.5 292.9Z" fill="url(#paint5_linear)"/>
<path d="M226.2 324.7C222.7 324.4 219.3 323.9 216.2 323.3C219.3 324 222.7 324.4 226.2 324.7Z" fill="url(#paint6_linear)"/>
<path d="M329.7 268C327 237.9 324.8 216.7 313.9 185.2C311.8 179.2 308.4 173.7 304.1 169.5C295.4 160.9 284.2 154.6 271 150.9C262.8 148.6 251.9 147.3 240.3 147.3C228.7 147.3 217.8 148.6 209.6 150.9C196.3 154.7 185.2 161 176.5 169.5C172.2 173.8 168.8 179.2 166.7 185.2C155.8 216.7 153.6 237.9 150.9 268C150.5 272.8 150.8 277.3 151.8 281.4C153.1 286.6 155.5 291.5 159 296C161.5 299.2 164.5 302.1 168.2 304.5C182.1 314 192.7 318.7 203 323H203.1H203.2C213 326.5 225.4 328.3 240.2 328.3H240.4H240.6C255.3 328.3 267.8 326.5 277.6 323H277.7H277.8C288.1 318.7 298.7 313.9 312.6 304.5C316.2 302 319.3 299.1 321.8 296C325.2 291.5 327.7 286.6 329 281.4C329.8 277.3 330.1 272.8 329.7 268ZM326.2 272.7C326.2 273.2 326.2 273.7 326.1 274.2C326 276.2 325.7 278.1 325.2 280.1C325.1 280.7 324.9 281.2 324.7 281.8C324.4 282.9 324 284 323.5 285.1C322.8 286.7 322 288.3 321 289.9C320.3 291 319.6 292 318.8 293C318.2 293.7 317.6 294.4 317 295.1C315.1 297.1 313 298.9 310.7 300.5C309.1 301.6 307.6 302.6 306.1 303.6C300 307.6 294 311.3 288.2 314.4C286.8 315.2 285.3 315.9 283.9 316.6C281.1 318 278.3 319.3 275.6 320.4C266.2 323.7 254.4 325.4 240.2 325.4C240.1 325.4 240.1 325.4 240 325.4C239.9 325.4 239.9 325.4 239.8 325.4C236.2 325.4 232.8 325.3 229.6 325.1C228.4 325 227.2 324.9 226 324.8C222.5 324.5 219.1 324 216 323.4C211.8 322.6 208 321.6 204.4 320.4C201.7 319.3 198.9 318 196.1 316.6C194.7 315.9 193.3 315.1 191.8 314.4C186 311.3 180.1 307.7 173.9 303.6C172.4 302.6 170.8 301.5 169.3 300.5C167 298.9 164.9 297.1 163 295.1C162.4 294.4 161.8 293.7 161.2 293C160.4 292 159.7 290.9 159 289.9C158 288.3 157.2 286.7 156.5 285.1C156 284 155.6 282.9 155.3 281.8C155.1 281.3 155 280.7 154.8 280.1C154.3 278.2 154 276.2 153.9 274.2C153.9 273.7 153.8 273.2 153.8 272.7C153.8 272.2 153.8 271.7 153.8 271.2C153.8 270.7 153.8 270.2 153.9 269.7C153.9 269.2 154 268.7 154 268.2C154.3 264.7 154.6 261.2 155 257.9C155.3 254.5 155.7 251.3 156.1 248C156.3 246.4 156.5 244.8 156.7 243.2C156.9 241.6 157.2 240 157.4 238.4C159.9 222.5 163.7 206.7 170.6 186.7C170.8 186 171.1 185.4 171.3 184.8C171.8 183.5 172.4 182.3 173.1 181.1C174.7 178.1 176.8 175.3 179.3 172.8C181.3 170.8 183.5 168.9 185.8 167.2C188.1 165.5 190.6 163.9 193.1 162.4C195.7 160.9 198.4 159.6 201.3 158.4C204.2 157.2 207.2 156.2 210.4 155.3C210.9 155.2 211.4 155 211.9 154.9C212.9 154.6 214 154.4 215.2 154.1C216.3 153.9 217.5 153.7 218.7 153.5C219.9 153.3 221.1 153.1 222.3 153C223.5 152.8 224.8 152.7 226.1 152.6C227.4 152.5 228.7 152.4 230 152.3C231.3 152.2 232.6 152.1 233.9 152.1C235.2 152 236.6 152 237.9 152C238.6 152 239.2 152 239.9 152C240.6 152 241.2 152 241.9 152C243.2 152 244.6 152.1 245.9 152.1C247.2 152.2 248.5 152.2 249.8 152.3C251.1 152.4 252.4 152.5 253.7 152.6C255 152.7 256.2 152.9 257.5 153C258.7 153.2 259.9 153.3 261.1 153.5C262.3 153.7 263.4 153.9 264.6 154.1C265.7 154.3 266.8 154.6 267.9 154.9C268.4 155 268.9 155.2 269.4 155.3C272.6 156.2 275.6 157.3 278.5 158.4C281.4 159.6 284.1 160.9 286.7 162.4C289.3 163.9 291.7 165.5 294 167.2C296.3 168.9 298.5 170.8 300.5 172.8C303 175.2 305 178 306.7 181.1C307.4 182.3 307.9 183.6 308.5 184.8C308.8 185.4 309 186.1 309.2 186.7C316.1 206.7 319.9 222.5 322.4 238.4C322.6 240 322.9 241.6 323.1 243.2C323.3 244.8 323.5 246.4 323.7 248C324.1 251.2 324.5 254.5 324.8 257.9C325.1 261.3 325.5 264.7 325.8 268.2C325.8 268.7 325.9 269.2 325.9 269.7C325.9 270.2 325.9 270.7 326 271.2C326.3 271.7 326.3 272.2 326.2 272.7Z" fill="#F7F7F7"/>
<path d="M280.7 186.7C272.1 183.4 257.8 188.3 247.3 188.6C245.2 188.8 233.9 188.8 231.8 188.6C221.3 188.3 207 183.4 198.4 186.7C188.6 190.5 180.1 199.6 177.6 210.8C173.7 230.5 184.3 254.2 209.5 258.6C219.7 260.4 229.3 260.9 239.6 260.9C249.9 260.9 259.5 260.4 269.7 258.6C294.9 254.2 305.5 230.5 301.6 210.8C298.5 199 290.5 190.4 280.7 186.7ZM199.5 232.6C199.4 233.2 198.8 233.5 198.3 233.4C198.3 233.4 193.3 232.4 190.3 235.5C190.1 235.7 189.8 235.8 189.5 235.8C189.2 235.8 189 235.7 188.8 235.5C188.4 235.1 188.4 234.4 188.8 234C192.6 230.1 198.5 231.2 198.7 231.3C199.2 231.5 199.6 232.1 199.5 232.6ZM199.5 227.6C199.3 228.2 198.7 228.5 198.2 228.3C196.3 227.7 190.7 226.5 188.1 228.2C187.9 228.3 187.7 228.4 187.5 228.4C187.2 228.4 186.8 228.2 186.6 227.9C186.3 227.4 186.4 226.8 186.9 226.4C190.9 223.8 198.5 226.2 198.8 226.3C199.3 226.5 199.6 227.1 199.5 227.6ZM203 224.8C202.8 225.1 202.5 225.3 202.1 225.3C201.9 225.3 201.7 225.2 201.5 225.1C201.5 225.1 196.6 221.9 191.6 221.9C191.5 221.9 191.4 221.9 191.3 221.9C190.7 221.9 190.2 221.5 190.2 220.9C190.2 220.3 190.6 219.8 191.2 219.8C197 219.7 202.4 223.2 202.6 223.4C203.2 223.7 203.4 224.4 203 224.8ZM221 217.4H220.9C219.2 216.5 217.7 215.7 216.3 215.1C215.9 215 215.6 214.8 215.2 214.6C214.8 214.5 214.5 214.3 214.2 214.1L213.1 213.6C212.7 213.5 212.3 213.4 212 213.3C211.6 213.2 211.2 213.2 210.8 213.2C210.6 213.2 210.4 213.2 210.2 213.2L209.6 213.3C209.2 213.3 208.8 213.3 208.4 213.4L207.2 213.7C206.4 213.9 205.6 214.2 204.7 214.5L202.3 215.6C202.2 215.6 202.1 215.6 202.1 215.5C202.1 215.4 202.1 215.4 202.1 215.3C202.8 214.7 203.5 214.1 204.2 213.6C205 213.1 205.7 212.6 206.6 212.2C208.3 211.4 210.2 210.9 212.2 210.9C214.2 210.9 216.3 211.2 217.9 212.4C218.3 212.7 218.7 213 219 213.4C219.3 213.8 219.7 214.1 219.9 214.5C220.5 215.3 220.9 216.2 221.1 217.2C221.2 217.3 221.1 217.4 221 217.4ZM255.7 235C253.5 236.4 246.5 240.1 241.1 234.2C239.9 233.3 238.9 233.7 238.4 234.1C236.1 236.6 233.6 237.4 231.2 237.4C227.9 237.4 224.9 235.8 223.6 235C223.1 234.7 223 234 223.3 233.5C223.6 233 224.3 232.9 224.8 233.2C232.1 237.9 236.3 233.8 238.1 231C238.4 230.5 238.6 229.8 238.6 229.2V226.9C238.6 226.9 238.6 226.9 238.6 226.8C235.9 226.5 233.8 225 233.8 223.3C233.8 221.3 236.4 219.7 239.7 219.7C243 219.7 245.6 221.3 245.6 223.3C245.6 225.1 243.5 226.5 240.8 226.8C240.8 226.8 240.8 226.8 240.8 226.9V229.2C240.8 229.9 241 230.5 241.3 231C243.1 233.8 247.3 237.9 254.6 233.2C255.1 232.9 255.7 233 256.1 233.5C256.3 234 256.1 234.6 255.7 235ZM272.1 213.7L270.9 213.4C270.5 213.3 270.1 213.3 269.7 213.3L269.1 213.2C268.9 213.2 268.7 213.2 268.5 213.2C268.1 213.2 267.7 213.2 267.3 213.3C266.9 213.4 266.5 213.5 266.2 213.6L265.1 214.1C264.8 214.3 264.4 214.5 264.1 214.6C263.8 214.8 263.4 214.9 263 215.1C261.6 215.7 260.1 216.5 258.4 217.4C258.3 217.4 258.2 217.4 258.2 217.3V217.2C258.4 216.2 258.8 215.3 259.4 214.5C259.7 214.1 260 213.7 260.3 213.4C260.7 213.1 261 212.7 261.4 212.4C263 211.2 265.2 210.9 267.1 210.9C269.1 210.9 271 211.4 272.7 212.2C273.6 212.6 274.3 213.2 275.1 213.6C275.8 214.2 276.5 214.7 277.2 215.3C277.3 215.4 277.3 215.5 277.2 215.5C277.2 215.6 277.1 215.6 277 215.5L274.6 214.4C273.7 214.2 272.9 213.9 272.1 213.7ZM277 225.3C276.7 225.3 276.3 225.1 276.1 224.8C275.8 224.3 275.9 223.7 276.4 223.3C276.6 223.1 282 219.6 287.8 219.7C288.4 219.7 288.8 220.2 288.8 220.8C288.8 221.4 288.3 221.8 287.7 221.8C287.6 221.8 287.5 221.8 287.4 221.8C282.4 221.8 277.6 225 277.5 225C277.5 225.2 277.2 225.3 277 225.3ZM290.4 235.6C290.2 235.8 289.9 235.9 289.7 235.9C289.4 235.9 289.1 235.8 288.9 235.6C285.9 232.5 281 233.5 280.9 233.5C280.3 233.6 279.8 233.3 279.7 232.7C279.6 232.1 279.9 231.6 280.5 231.5C280.7 231.4 286.6 230.3 290.4 234.2C290.8 234.5 290.8 235.2 290.4 235.6ZM292.6 227.9C292.4 228.2 292.1 228.4 291.7 228.4C291.5 228.4 291.3 228.3 291.1 228.2C288.5 226.5 282.9 227.7 281 228.3C280.4 228.5 279.9 228.2 279.7 227.6C279.5 227 279.8 226.5 280.4 226.3C280.7 226.2 288.3 223.8 292.3 226.4C292.8 226.7 293 227.4 292.6 227.9Z" fill="#F7F7F7"/>
<path d="M226.3 173.4L234.7 174.1C238 174.4 241.3 174.4 244.7 174.1L253.1 173.4C253.1 173.4 261.7 171.8 256.6 166.4C252.5 162.1 244.2 161.7 241 161.7C240.2 161.7 239.3 161.7 238.5 161.7C235.3 161.7 227 162.1 222.9 166.4C217.7 171.8 226.3 173.4 226.3 173.4Z" fill="#F7F7F7"/>
<path d="M277 215.6C277.1 215.6 277.1 215.6 277.2 215.6C277.3 215.5 277.2 215.4 277.2 215.4C276.5 214.8 275.8 214.2 275.1 213.7C274.3 213.2 273.6 212.7 272.7 212.3C271 211.5 269.1 211 267.1 211C265.1 211 263 211.3 261.4 212.5C261 212.8 260.6 213.1 260.3 213.5C260 213.9 259.6 214.2 259.4 214.6C258.8 215.4 258.4 216.3 258.2 217.3V217.4C258.2 217.5 258.3 217.5 258.4 217.5C260.1 216.6 261.6 215.8 263 215.2C263.4 215.1 263.7 214.9 264.1 214.7C264.5 214.6 264.8 214.4 265.1 214.2L266.2 213.7C266.6 213.6 267 213.5 267.3 213.4C267.7 213.3 268.1 213.3 268.5 213.3C268.7 213.3 268.9 213.3 269.1 213.3L269.7 213.4C270.1 213.4 270.5 213.4 270.9 213.5L272.1 213.8C272.9 214 273.7 214.3 274.6 214.6L277 215.6Z" fill="#030813"/>
<path d="M219 213.4C218.6 213.1 218.3 212.7 217.9 212.4C216.3 211.2 214.1 210.9 212.2 210.9C210.2 210.9 208.3 211.4 206.6 212.2C205.7 212.6 205 213.2 204.2 213.6C203.5 214.2 202.8 214.7 202.1 215.3C202 215.3 202 215.4 202.1 215.5C202.1 215.6 202.2 215.6 202.3 215.6L204.7 214.5C205.5 214.2 206.3 213.9 207.2 213.7L208.4 213.4C208.8 213.3 209.2 213.3 209.6 213.3L210.2 213.2C210.4 213.2 210.6 213.2 210.8 213.2C211.2 213.2 211.6 213.2 212 213.3C212.4 213.4 212.8 213.5 213.1 213.6L214.2 214.1C214.5 214.3 214.9 214.5 215.2 214.6C215.5 214.8 215.9 214.9 216.3 215.1C217.7 215.7 219.2 216.5 220.9 217.4H221C221.1 217.4 221.2 217.3 221.1 217.2C220.9 216.2 220.5 215.3 219.9 214.5C219.7 214.1 219.4 213.7 219 213.4Z" fill="#030813"/>
<path d="M254.5 233.2C247.2 237.9 243 233.8 241.2 231C240.9 230.5 240.7 229.8 240.7 229.2V226.9C240.7 226.9 240.7 226.9 240.7 226.8C243.4 226.5 245.5 225 245.5 223.3C245.5 221.3 242.9 219.7 239.6 219.7C236.3 219.7 233.7 221.3 233.7 223.3C233.7 225.1 235.8 226.5 238.5 226.8C238.5 226.8 238.5 226.8 238.5 226.9V229.2C238.5 229.9 238.3 230.5 238 231C236.2 233.8 232 237.9 224.7 233.2C224.2 232.9 223.6 233 223.2 233.5C222.9 234 223 234.6 223.5 235C224.8 235.8 227.7 237.4 231.1 237.4C233.5 237.4 236 236.6 238.3 234.1C238.8 233.7 239.8 233.3 241 234.2C246.5 240.1 253.5 236.4 255.6 235C256.1 234.7 256.2 234 255.9 233.5C255.7 233 255 232.9 254.5 233.2Z" fill="#030813"/>
<path d="M287.8 221.9C288.4 221.9 288.9 221.5 288.9 220.9C288.9 220.3 288.5 219.8 287.9 219.8C282.1 219.7 276.7 223.2 276.5 223.4C276 223.7 275.9 224.4 276.2 224.9C276.4 225.2 276.7 225.4 277.1 225.4C277.3 225.4 277.5 225.3 277.7 225.2C277.7 225.2 282.6 222 287.6 222C287.6 221.9 287.7 221.9 287.8 221.9Z" fill="#030813"/>
<path d="M280.4 226.3C279.8 226.5 279.5 227.1 279.7 227.6C279.9 228.2 280.5 228.5 281 228.3C282.9 227.7 288.5 226.5 291.1 228.2C291.3 228.3 291.5 228.4 291.7 228.4C292 228.4 292.4 228.2 292.6 227.9C292.9 227.4 292.8 226.8 292.3 226.4C288.4 223.8 280.7 226.2 280.4 226.3Z" fill="#030813"/>
<path d="M280.5 231.4C279.9 231.5 279.6 232.1 279.7 232.6C279.8 233.2 280.4 233.5 280.9 233.4C280.9 233.4 285.9 232.4 288.9 235.5C289.1 235.7 289.4 235.8 289.7 235.8C290 235.8 290.2 235.7 290.4 235.5C290.8 235.1 290.8 234.4 290.4 234C286.7 230.2 280.8 231.4 280.5 231.4Z" fill="#030813"/>
<path d="M191.4 219.8C190.8 219.8 190.4 220.3 190.4 220.9C190.4 221.5 190.9 221.9 191.5 221.9C191.6 221.9 191.7 221.9 191.8 221.9C196.8 221.9 201.6 225.1 201.7 225.1C201.9 225.2 202.1 225.3 202.3 225.3C202.6 225.3 203 225.1 203.2 224.8C203.5 224.3 203.4 223.7 202.9 223.3C202.5 223.2 197.2 219.7 191.4 219.8Z" fill="#030813"/>
<path d="M198.8 226.3C198.5 226.2 190.9 223.8 186.9 226.4C186.4 226.7 186.3 227.4 186.6 227.9C186.8 228.2 187.1 228.4 187.5 228.4C187.7 228.4 187.9 228.3 188.1 228.2C190.7 226.5 196.3 227.7 198.2 228.3C198.8 228.5 199.3 228.2 199.5 227.6C199.6 227.1 199.3 226.5 198.8 226.3Z" fill="#030813"/>
<path d="M198.7 231.4C198.5 231.3 192.6 230.2 188.8 234.1C188.4 234.5 188.4 235.2 188.8 235.6C189 235.8 189.3 235.9 189.5 235.9C189.8 235.9 190.1 235.8 190.3 235.6C193.3 232.5 198.2 233.5 198.3 233.5C198.9 233.6 199.4 233.3 199.5 232.7C199.6 232.1 199.2 231.5 198.7 231.4Z" fill="#030813"/>
<path d="M283.1 183.6C279.8 182.3 276.7 181.2 273.1 180.9C272.2 180.8 271.2 180.8 270.3 180.9C268.3 181.1 263.9 181.6 261.8 182C254.6 183.5 246.9 184.3 239.6 184.3C232.3 184.3 224.6 183.5 217.4 182C214.7 181.4 210.5 180.8 207.8 180.8C203.5 180.8 199.9 182.2 196.1 183.6C180.4 189.6 172.2 204.6 173.9 223.1C175.8 243.1 188.7 258.9 208.2 262.4C217.4 264 227.6 265.5 239.6 265.5C251.6 265.5 261.1 263.3 270.2 261.6C289.6 258.2 303.4 243.1 305.3 223.1C307 204.6 298.8 189.6 283.1 183.6ZM269.7 258.6C259.5 260.4 249.9 260.9 239.6 260.9C229.3 260.9 219.7 260.4 209.5 258.6C184.3 254.2 173.7 230.5 177.6 210.8C180.1 199.6 188.6 190.5 198.4 186.7C207 183.4 221.3 188.3 231.8 188.6C233.9 188.8 245.2 188.8 247.3 188.6C257.8 188.3 272.1 183.4 280.7 186.7C290.5 190.5 298.5 199 301.5 210.8C305.4 230.5 294.8 254.1 269.7 258.6Z" fill="#030813"/>
<path d="M268.8 268.1C268.2 268.2 267.6 268.4 267.1 268.6C264.9 269.6 263.9 272.2 264.6 274.5C264.9 275.5 265.2 276.5 265.5 277.5C266.7 282 267.2 286.6 267.2 291.2C267.2 295.2 267 300.3 266.4 303.2C265.3 308.5 268.1 308.8 268.1 308.8C270.1 309.6 272 305.5 272.8 303.7C273.1 303.1 273.4 302.5 273.7 301.8C280.9 287.1 275.9 273.4 275.9 273.4C275.9 273.4 273.9 267 268.8 268.1Z" fill="#030813"/>
<path d="M295 257.4C294.5 257.5 294 257.7 293.6 257.8C291.8 258.6 290.9 260.8 291.5 262.7C291.8 263.5 292 264.4 292.2 265.2C293.2 268.9 293.6 272.7 293.6 276.5C293.6 279.8 293.5 284 293 286.4C292.1 290.8 294.4 291.1 294.4 291.1C296 291.7 297.7 288.4 298.3 286.9C298.5 286.4 298.8 285.9 299 285.4C305 273.2 300.8 261.9 300.8 261.9C300.8 261.9 299.2 256.5 295 257.4Z" fill="#030813"/>
<path d="M212.1 268.6C211.6 268.4 211.1 268.2 210.4 268.1C205.4 267.1 203.3 273.6 203.3 273.6C203.3 273.6 198.2 287.3 205.5 302C205.8 302.6 206.1 303.2 206.4 303.9C207.1 305.7 209.1 309.8 211.1 309C211.1 309 213.9 308.6 212.8 303.4C212.2 300.5 212 295.3 212 291.4C212 286.8 212.5 282.2 213.7 277.7C214 276.7 214.2 275.7 214.6 274.7C215.3 272.2 214.2 269.6 212.1 268.6Z" fill="#030813"/>
<path d="M185.5 257.8C185.1 257.6 184.7 257.5 184.1 257.4C179.9 256.6 178.2 261.9 178.2 261.9C178.2 261.9 174 273.2 180 285.4C180.2 285.9 180.5 286.4 180.7 286.9C181.3 288.4 182.9 291.8 184.6 291.1C184.6 291.1 186.9 290.8 186 286.4C185.5 284 185.4 279.7 185.4 276.5C185.4 272.7 185.8 268.9 186.8 265.2C187 264.4 187.2 263.5 187.5 262.7C188.2 260.8 187.3 258.6 185.5 257.8Z" fill="#030813"/>
<path d="M326.2 269.7C326.2 269.2 326.1 268.7 326.1 268.2C325.8 264.7 325.5 261.2 325.1 257.9C324.8 254.5 324.4 251.3 324 248C323.8 246.4 323.6 244.8 323.4 243.2C323.2 241.6 322.9 240 322.7 238.4C320.2 222.5 316.4 206.7 309.5 186.7C309.3 186 309 185.4 308.8 184.8C308.3 183.5 307.7 182.3 307 181.1C305.4 178.1 303.3 175.3 300.8 172.8C298.8 170.8 296.6 168.9 294.3 167.2C292 165.5 289.5 163.9 287 162.4C284.4 160.9 281.7 159.6 278.8 158.4C275.9 157.2 272.9 156.2 269.7 155.3C269.2 155.2 268.7 155 268.2 154.9C267.2 154.6 266.1 154.4 264.9 154.1C263.8 153.9 262.6 153.7 261.4 153.5C260.2 153.3 259 153.1 257.8 153C256.6 152.8 255.3 152.7 254 152.6C252.7 152.5 251.4 152.4 250.1 152.3C248.8 152.2 247.5 152.1 246.2 152.1C244.9 152 243.5 152 242.2 152C241.5 152 240.9 152 240.2 152C239.5 152 238.9 152 238.2 152C236.9 152 235.5 152.1 234.2 152.1C232.9 152.2 231.6 152.2 230.3 152.3C229 152.4 227.7 152.5 226.4 152.6C225.1 152.7 223.9 152.9 222.6 153C221.4 153.2 220.2 153.3 219 153.5C217.8 153.7 216.7 153.9 215.5 154.1C214.4 154.3 213.3 154.6 212.2 154.9C211.7 155 211.2 155.2 210.7 155.3C207.5 156.2 204.5 157.3 201.6 158.4C198.7 159.6 196 160.9 193.4 162.4C190.8 163.9 188.4 165.5 186.1 167.2C183.8 168.9 181.6 170.8 179.6 172.8C177.1 175.2 175.1 178 173.4 181.1C172.7 182.3 172.2 183.6 171.6 184.8C171.3 185.4 171.1 186.1 170.9 186.7C164 206.7 160.2 222.5 157.7 238.4C157.5 240 157.2 241.6 157 243.2C156.8 244.8 156.6 246.4 156.4 248C156 251.2 155.6 254.5 155.3 257.9C155 261.3 154.6 264.7 154.3 268.2C154.3 268.7 154.2 269.2 154.2 269.7C154.2 270.2 154.2 270.7 154.1 271.2C154.1 271.7 154.1 272.2 154.1 272.7C154.1 273.2 154.1 273.7 154.2 274.2C154.3 276.2 154.6 278.1 155.1 280.1C155.2 280.7 155.4 281.2 155.6 281.8C155.9 282.9 156.3 284 156.8 285.1C157.5 286.7 158.3 288.3 159.3 289.9C160 291 160.7 292 161.5 293C162.1 293.7 162.7 294.4 163.3 295.1C165.2 297.1 167.3 298.9 169.6 300.5C171.2 301.6 172.7 302.6 174.2 303.6C180.3 307.6 186.3 311.3 192.1 314.4C193.5 315.2 195 315.9 196.4 316.6C199.2 318 202 319.3 204.7 320.4C208.2 321.7 212.1 322.7 216.3 323.4C219.4 324 222.8 324.4 226.3 324.8C227.5 324.9 228.7 325 229.9 325.1C233.2 325.3 236.6 325.4 240.1 325.4C240.2 325.4 240.2 325.4 240.3 325.4C240.4 325.4 240.4 325.4 240.5 325.4C254.7 325.4 266.5 323.7 275.9 320.4C278.6 319.3 281.4 318 284.2 316.6C285.6 315.9 287 315.1 288.5 314.4C294.3 311.3 300.2 307.7 306.4 303.6C307.9 302.6 309.5 301.5 311 300.5C313.3 298.9 315.4 297.1 317.3 295.1C317.9 294.4 318.5 293.7 319.1 293C319.9 292 320.6 290.9 321.3 289.9C322.3 288.3 323.1 286.7 323.8 285.1C324.3 284 324.7 282.9 325 281.8C325.2 281.3 325.3 280.7 325.5 280.1C326 278.2 326.3 276.2 326.4 274.2C326.4 273.7 326.5 273.2 326.5 272.7C326.5 272.2 326.5 271.7 326.5 271.2C326.2 270.7 326.2 270.2 326.2 269.7ZM320.7 278.8C320 281.4 319 283.9 317.6 286.3C267.4 328.4 215.4 327.9 162 285.1C160.9 283.1 160.1 281 159.6 278.8C158.8 275.8 158.6 272.3 158.9 268.6C161.5 239.3 163.6 218.2 174.2 187.6C175.8 182.9 178.4 178.7 181.7 175.5C189.3 168 200.2 161.2 212 157.8C219.3 155.7 229.5 154.5 240.1 154.5C250.7 154.5 260.9 155.7 268.2 157.8C279.9 161.1 290.9 168 298.5 175.5C301.8 178.8 304.4 183 306 187.6C316.6 218.2 318.7 239.3 321.3 268.6C321.7 272.4 321.5 275.8 320.7 278.8Z" fill="#030813"/>
<path d="M239.6 274.2C236.4 274.2 233.8 276.9 234 280.2L236.2 312C236.3 313.8 237.8 315.2 239.6 315.2C241.4 315.2 242.9 313.8 243 312L245.2 280.2C245.4 277 242.8 274.2 239.6 274.2Z" fill="#030813"/>
<path d="M320.7 278.8C321.5 275.8 321.7 272.3 321.4 268.6C318.8 239.3 316.7 218.2 306.1 187.6C304.5 182.9 301.9 178.7 298.6 175.5C291 168 280.1 161.2 268.3 157.8C261 155.7 250.8 154.5 240.2 154.5C229.6 154.5 219.4 155.7 212.1 157.8C200.4 161.1 189.4 168 181.8 175.5C178.5 178.8 175.9 183 174.3 187.6C163.7 218.2 161.6 239.3 159 268.6C158.7 272.3 158.9 275.8 159.7 278.8C160.3 281 161.1 283.1 162.1 285.1C215.5 327.9 267.4 328.4 317.7 286.3C319 283.9 320.1 281.5 320.7 278.8ZM222.8 166.4C226.9 162.1 235.2 161.7 238.4 161.7C239.2 161.7 240.1 161.7 240.9 161.7C244.1 161.7 252.4 162.1 256.5 166.4C261.6 171.8 253 173.4 253 173.4L244.6 174.1C241.3 174.4 238 174.4 234.6 174.1L226.2 173.4C226.3 173.4 217.7 171.8 222.8 166.4ZM187.6 262.7C187.3 263.5 187.1 264.4 186.9 265.2C185.9 268.9 185.5 272.7 185.5 276.5C185.5 279.8 185.6 284 186.1 286.4C187 290.8 184.7 291.1 184.7 291.1C183.1 291.7 181.4 288.4 180.8 286.9C180.6 286.4 180.3 285.9 180.1 285.4C174.1 273.2 178.3 261.9 178.3 261.9C178.3 261.9 180 256.5 184.2 257.4C184.7 257.5 185.2 257.7 185.6 257.8C187.3 258.6 188.2 260.8 187.6 262.7ZM214.5 274.5C214.2 275.5 213.9 276.5 213.6 277.5C212.4 282 211.9 286.6 211.9 291.2C211.9 295.2 212.1 300.3 212.7 303.2C213.8 308.5 211 308.8 211 308.8C209 309.6 207.1 305.5 206.3 303.7C206 303.1 205.7 302.5 205.4 301.8C198.2 287.1 203.2 273.4 203.2 273.4C203.2 273.4 205.3 266.9 210.3 267.9C210.9 268 211.5 268.2 212 268.4C214.2 269.6 215.3 272.2 214.5 274.5ZM245.2 280.2L243 312C242.9 313.8 241.4 315.2 239.6 315.2C237.8 315.2 236.3 313.8 236.2 312L234 280.2C233.8 277 236.3 274.2 239.6 274.2C242.8 274.2 245.4 277 245.2 280.2ZM273.7 301.9C273.4 302.5 273.1 303.1 272.8 303.8C272.1 305.6 270.1 309.7 268.1 308.9C268.1 308.9 265.3 308.5 266.4 303.3C267 300.4 267.2 295.2 267.2 291.3C267.2 286.7 266.7 282.1 265.5 277.6C265.2 276.6 265 275.6 264.6 274.6C263.9 272.3 264.9 269.7 267.1 268.7C267.6 268.5 268.1 268.3 268.8 268.2C273.8 267.2 275.9 273.7 275.9 273.7C275.9 273.7 281 287.2 273.7 301.9ZM299.1 285.3C298.9 285.8 298.6 286.3 298.4 286.8C297.8 288.3 296.2 291.7 294.5 291C294.5 291 292.2 290.7 293.1 286.3C293.6 283.9 293.7 279.6 293.7 276.4C293.7 272.6 293.3 268.8 292.3 265.1C292.1 264.3 291.9 263.4 291.6 262.6C291 260.7 291.8 258.6 293.7 257.7C294.1 257.5 294.5 257.4 295.1 257.3C299.3 256.5 301 261.8 301 261.8C301 261.8 305.1 273.2 299.1 285.3ZM305.3 223.2C303.4 243.2 289.7 258.3 270.2 261.7C261 263.3 251.6 265.6 239.6 265.6C227.6 265.6 217.3 264.1 208.2 262.5C188.8 259.1 175.8 243.2 173.9 223.2C172.2 204.7 180.4 189.6 196.1 183.7C199.9 182.2 203.5 180.9 207.8 180.9C210.5 180.9 214.6 181.6 217.4 182.1C224.6 183.6 232.3 184.4 239.6 184.4C246.9 184.4 254.6 183.6 261.8 182.1C263.9 181.7 268.2 181.2 270.3 181C271.2 180.9 272.2 180.9 273.1 181C276.7 181.3 279.8 182.5 283.1 183.7C298.8 189.6 307 204.6 305.3 223.2Z" fill="url(#paint7_linear)"/>
</g>
<defs>
<linearGradient id="paint0_linear" x1="107.717" y1="5.61251" x2="107.717" y2="138.441" gradientUnits="userSpaceOnUse">
<stop offset="0.1323" stop-color="#FE0178"/>
<stop offset="0.6363" stop-color="#FF0057"/>
<stop offset="0.9734" stop-color="#FF003E"/>
</linearGradient>
<linearGradient id="paint1_linear" x1="386.816" y1="14.227" x2="386.816" y2="129.719" gradientUnits="userSpaceOnUse">
<stop offset="0.1323" stop-color="#FE0178"/>
<stop offset="0.6363" stop-color="#FF0057"/>
<stop offset="0.9734" stop-color="#FF003E"/>
</linearGradient>
<linearGradient id="paint2_linear" x1="202.683" y1="15.0476" x2="202.683" y2="130.031" gradientUnits="userSpaceOnUse">
<stop offset="0.1323" stop-color="#FE0178"/>
<stop offset="0.6363" stop-color="#FF0057"/>
<stop offset="0.9734" stop-color="#FF003E"/>
</linearGradient>
<linearGradient id="paint3_linear" x1="278.254" y1="12.0098" x2="278.254" y2="131.304" gradientUnits="userSpaceOnUse">
<stop offset="0.1323" stop-color="#FE0178"/>
<stop offset="0.6363" stop-color="#FF0057"/>
<stop offset="0.9734" stop-color="#FF003E"/>
</linearGradient>
<linearGradient id="paint4_linear" x1="320.019" y1="327.679" x2="320.019" y2="149.492" gradientUnits="userSpaceOnUse">
<stop stop-color="#BA181D"/>
<stop offset="0.25" stop-color="#E8283F"/>
<stop offset="1" stop-color="#FF4063"/>
</linearGradient>
<linearGradient id="paint5_linear" x1="160.363" y1="327.679" x2="160.363" y2="149.491" gradientUnits="userSpaceOnUse">
<stop stop-color="#BA181D"/>
<stop offset="0.25" stop-color="#E8283F"/>
<stop offset="1" stop-color="#FF4063"/>
</linearGradient>
<linearGradient id="paint6_linear" x1="221.195" y1="327.679" x2="221.195" y2="149.488" gradientUnits="userSpaceOnUse">
<stop stop-color="#BA181D"/>
<stop offset="0.25" stop-color="#E8283F"/>
<stop offset="1" stop-color="#FF4063"/>
</linearGradient>
<linearGradient id="paint7_linear" x1="240.191" y1="154.578" x2="240.191" y2="317.558" gradientUnits="userSpaceOnUse">
<stop offset="0.1323" stop-color="#FE0178"/>
<stop offset="0.6363" stop-color="#FF0057"/>
<stop offset="0.9734" stop-color="#FF003E"/>
</linearGradient>
<clipPath id="clip0">
<rect width="493.6" height="360" fill="white"/>
</clipPath>
</defs>
</svg>
