<svg xmlns="http://www.w3.org/2000/svg" viewBox="0 0 471 503"><line x1="103.26198" y1="38.06141" x2="471" y2="38.06141" fill="none" stroke="#000" stroke-miterlimit="10" stroke-width="3"/><line x1="5" y1="287.43268" x2="339.98403" y2="287.43268" fill="none" stroke="#000" stroke-miterlimit="10" stroke-width="3"/><line x1="218.42571" y1="176.62997" x2="387.32457" y2="176.62997" fill="none" stroke="#000" stroke-miterlimit="10" stroke-width="3"/><line x1="293.91897" y1="161.52163" x2="362.16015" y2="161.52163" fill="none" stroke="#000" stroke-miterlimit="10" stroke-width="3"/><line x1="84.40037" y1="470.10956" x2="419.3844" y2="470.10956" fill="none" stroke="#000" stroke-miterlimit="10" stroke-width="3"/><line x1="54.35838" y1="443.3568" x2="288.68473" y2="443.3568" fill="none" stroke="#000" stroke-miterlimit="10" stroke-width="3"/><path d="M226.63741,116.242c-20.40333,23.21646-45.03424,36.33051-62.44807,43.32058l-3.18094,1.26911L146.9468,138.139l4.71071-1.71229A142.23137,142.23137,0,0,0,189.18272,116.242Z"/><rect x="203.82822" y="192.42825" width="25.41606" height="36.48162"/><path d="M285.26043,264.56551l-2.02323,2.89078a312.57221,312.57221,0,0,1-60.153,64.5025l-2.74793,2.2159-16.508-15.41049V263.29646h25.41606V291.8411a343.09477,343.09477,0,0,0,25.38609-28.54464h29.27108Z"/><path d="M156.39845,263.29646h27.11712c-2.48622,26.99354-11.38444,48.90063-38.421,67.31262l-3.01973,2.05477L125.245,312.98269l3.62353-2.58857C148.09419,296.67576,154.48581,281.54732,156.39845,263.29646Z"/><path d="M156.85136,228.90987c-.19119-9.14559-.33225-18.64369.12091-28.9778l.18111-3.898h26.11055l.09068,3.97854c.12066,5.38862.29194,10.606.44283,15.6623.14106,4.52241.28187,8.93405.38238,13.23491Z"/><path d="M246.56743,38.89736l-.463,2.81019c-5.34474,32.23111-18.67181,56.44471-34.56569,74.53445H174.08407a121.64592,121.64592,0,0,0,12.33057-10.6766L163.13239,90.70888l13.66939-21.44375L202.57,85.71309a121.196,121.196,0,0,0,13.58879-29.25986H173.38935c-10.126,15.76306-23.79537,30.66994-40.66561,44.338l-2.9492,2.39719L112.35064,84.5346l3.51294-2.7497c23.46337-18.29113,39.81016-41.004,48.57741-67.494l1.28845-3.89794,24.973,8.47077-1.23807,3.82743c-.86552,2.67919-1.862,5.3987-3.04971,8.32969H228.107L213.80355,12.619,226.16435,3l19.77913,25.44238-7.509,5.852Z"/><rect x="244.06113" y="4.4144" width="15.66251" height="32.23258" transform="translate(40.49135 159.02576) rotate(-37.88963)"/><path d="M167.343,409.09539l-3.03472-2.0576-14.88731,17.655H189.1208Q178.3549,416.57026,167.343,409.09539Z"/><path d="M267.3502,399.37635H235.38991q-10.28743,13.17138-21.46963,25.31648h34.12605Q258.291,412.36235,267.3502,399.37635Z"/><path d="M146.63765,429.07822a461.43044,461.43044,0,0,1,83.54317,70.55087L233.31089,503,249.769,483.48279l-2.51177-2.6426c-9.1796-9.667-19.08687-19.25452-29.49176-28.53955q13.37277-13.30029,25.248-27.60781h-34.126q-5.22,5.66193-10.60862,11.07551-7.00708-5.66184-14.19087-11.07551H144.38809l-1.56688,1.85817Z"/><path d="M267.99331,383.14276l1.85957-2.99284-17.027-14.38322H120.5249V391.202H231.56732q-3.07023,4.13774-6.24318,8.1744h31.96029Q262.87122,391.36839,267.99331,383.14276Z"/><path d="M269.27476,250.95466q-4.499,6.25368-9.35151,12.34346H289.222l-17.24476-16.10044Z"/><rect x="209.14187" y="228.90987" width="25.41705" height="34.38824"/><path d="M189.494,228.90987H162.164c.0204.96032.04079,1.92033.06168,2.87382.25165,11.52361.47945,21.94692-.5227,31.51443h27.12425A301.2703,301.2703,0,0,0,189.494,228.90987Z"/><rect x="34.96587" y="365.7667" width="60.64914" height="25.43525"/><rect x="285.26005" y="55.83063" width="25.41895" height="25.43525"/><rect x="285.26005" y="101.15563" width="25.41895" height="25.43525"/><line x1="98.26198" y1="35.06141" x2="466" y2="35.06141" fill="none" stroke="#fff" stroke-miterlimit="10" stroke-width="3"/><line y1="284.43268" x2="334.98403" y2="284.43268" fill="none" stroke="#fff" stroke-miterlimit="10" stroke-width="3"/><line x1="213.42571" y1="173.62997" x2="382.32457" y2="173.62997" fill="none" stroke="#fff" stroke-miterlimit="10" stroke-width="3"/><line x1="288.91897" y1="158.52163" x2="357.16015" y2="158.52163" fill="none" stroke="#fff" stroke-miterlimit="10" stroke-width="3"/><line x1="79.40037" y1="467.10956" x2="414.3844" y2="467.10956" fill="none" stroke="#fff" stroke-miterlimit="10" stroke-width="3"/><line x1="49.35838" y1="440.3568" x2="283.68473" y2="440.3568" fill="none" stroke="#fff" stroke-miterlimit="10" stroke-width="3"/><path d="M221.63741,113.242c-20.40333,23.21646-45.03424,36.33051-62.44807,43.32058l-3.18094,1.26911L141.9468,135.139l4.71071-1.71229A142.23137,142.23137,0,0,0,184.18272,113.242Z" fill="#fff"/><rect x="198.82822" y="189.42825" width="25.41606" height="36.48162" fill="#fff"/><path d="M280.26043,261.56551l-2.02323,2.89078a312.57221,312.57221,0,0,1-60.153,64.5025l-2.74793,2.2159-16.508-15.41049V260.29646h25.41606V288.8411a343.09477,343.09477,0,0,0,25.38609-28.54464h29.27108Z" fill="#fff"/><path d="M151.39845,260.29646h27.11712c-2.48622,26.99354-11.38444,48.90063-38.421,67.31262l-3.01973,2.05477L120.245,309.98269l3.62353-2.58857C143.09419,293.67576,149.48581,278.54732,151.39845,260.29646Z" fill="#fff"/><path d="M151.85136,225.90987c-.19119-9.14559-.33225-18.64369.12091-28.9778l.18111-3.898h26.11055l.09068,3.97854c.12066,5.38862.29194,10.606.44283,15.6623.14106,4.52241.28187,8.93405.38238,13.23491Z" fill="#fff"/><path d="M241.56743,35.89736l-.463,2.81019c-5.34474,32.23111-18.67181,56.44471-34.56569,74.53445H169.08407a121.64592,121.64592,0,0,0,12.33057-10.6766L158.13239,87.70888l13.66939-21.44375L197.57,82.71309a121.196,121.196,0,0,0,13.58879-29.25986H168.38935c-10.126,15.76306-23.79537,30.66994-40.66561,44.338l-2.9492,2.39719L107.35064,81.5346l3.51294-2.7497c23.46337-18.29113,39.81016-41.004,48.57741-67.494L160.72944,7.393l24.973,8.47077-1.23807,3.82743c-.86552,2.67919-1.862,5.3987-3.04971,8.32969H223.107L208.80355,9.619,221.16435,0l19.77913,25.44238-7.509,5.852Z" fill="#fff"/><rect x="239.06113" y="1.4144" width="15.66251" height="32.23258" transform="translate(41.27975 155.32263) rotate(-37.88963)" fill="#fff"/><path d="M162.343,406.09539l-3.03472-2.0576-14.88731,17.655H184.1208Q173.3549,413.57026,162.343,406.09539Z" fill="#fff"/><path d="M262.3502,396.37635H230.38991q-10.28743,13.17138-21.46963,25.31648h34.12605Q253.291,409.36235,262.3502,396.37635Z" fill="#fff"/><path d="M141.63765,426.07822a461.43044,461.43044,0,0,1,83.54317,70.55087L228.31089,500,244.769,480.48279l-2.51177-2.6426c-9.1796-9.667-19.08687-19.25452-29.49176-28.53955q13.37277-13.30029,25.248-27.60781h-34.126q-5.22,5.66193-10.60862,11.07551-7.00708-5.66184-14.19087-11.07551H139.38809l-1.56688,1.85817Z" fill="#fff"/><path d="M262.99331,380.14276l1.85957-2.99284-17.027-14.38322H115.5249V388.202H226.56732q-3.07023,4.13774-6.24318,8.1744h31.96029Q257.87122,388.36839,262.99331,380.14276Z" fill="#fff"/><path d="M264.27476,247.95466q-4.499,6.25368-9.35151,12.34346H284.222l-17.24476-16.10044Z" fill="#fff"/><rect x="204.14187" y="225.90987" width="25.41705" height="34.38824" fill="#fff"/><path d="M184.494,225.90987H157.164c.0204.96032.04079,1.92033.06168,2.87382.25165,11.52361.47945,21.94692-.5227,31.51443h27.12425A301.2703,301.2703,0,0,0,184.494,225.90987Z" fill="#fff"/><rect x="29.96587" y="362.7667" width="60.64914" height="25.43525" fill="#fff"/><rect x="280.26005" y="52.83063" width="25.41895" height="25.43525" fill="#fff"/><rect x="280.26005" y="98.15563" width="25.41895" height="25.43525" fill="#fff"/></svg>