<svg xmlns="http://www.w3.org/2000/svg" viewBox="0 0 732.94546 734.39453"><path d="M710.857,361.51562,560.44781,79.8125a15.00109,15.00109,0,0,0-26.46484,0L476.033,188.34705,379.70465,7.93457a15.00109,15.00109,0,0,0-26.46485,0l-96.32739,180.4118-57.95-108.53387a15.00109,15.00109,0,0,0-26.46484,0L22.08941,361.51465C-8.89594,419.5459-7.19574,487.875,26.63727,544.293c31.2517,52.1145,84.38732,84.80591,144.16082,89.49451C215.8728,697.1283,287.68023,734.39453,366.4732,734.39453c78.79236,0,150.6001-37.26575,195.67481-100.60693,59.77258-4.68872,112.90747-37.38013,144.15918-89.49365C740.14117,487.876,741.84137,419.54688,710.857,361.51562ZM498.58648,471.624,436.857,558.5603l-17.6051,24.79419-48.70252,68.58985a4.98291,4.98291,0,0,1-.52233.61059c-.02222.02258-.04529.04395-.068.06592a4.96321,4.96321,0,0,1-.51709.44116c-.0188.01392-.03662.02869-.05566.04236a4.99761,4.99761,0,0,1-1.36572.69128c-.011.00354-.02076.0094-.03174.01294-.016.00513-.03235.00635-.04834.01136a5.02015,5.02015,0,0,1-.66309.15612c-.02344.00379-.04663.00916-.07007.0127a5.00261,5.00261,0,0,1-.73608.061c-.09656,0-.19373-.0166-.29053-.02221-.11743-.00684-.23486-.01172-.35107-.02674-.11463-.01477-.22827-.03869-.34253-.06164-.11487-.02319-.22839-.04932-.34119-.08032-.06421-.01758-.12927-.02491-.19323-.04541-.04419-.01416-.0835-.03687-.12708-.052-.14514-.05065-.28625-.111-.42639-.1748-.11475-.05249-.2273-.10693-.33692-.16748a4.959,4.959,0,0,1-.43859-.26831c-.08118-.0564-.15735-.11768-.23475-.17871-.10986-.08618-.21606-.17652-.31909-.27222-.07092-.06616-.14111-.13208-.20788-.20215-.1073-.11218-.2074-.23242-.30493-.35571-.04834-.06128-.101-.11841-.14637-.18188l-.01758-.02173L313.711,583.3374l-17.59986-24.801-61.678-86.91431a4.99963,4.99963,0,0,1,6.62012-7.19824l85.48377,50.50427,25.91052,15.308,14.02514,8.28614,14.02649-8.282,25.91346-15.30053,85.55468-50.51587a5.00019,5.00019,0,0,1,6.61914,7.20019ZM233.52081,444.182c.00586-.1034.02588-.20551.03821-.30854.017-.14154.03174-.28338.06042-.42169.02283-.11059.05689-.21856.08741-.32788.03613-.12958.07287-.25836.11914-.384.0393-.10687.08532-.211.13232-.3158.05664-.12628.11743-.24945.1842-.3703.03113-.05645.05213-.11639.08558-.172L300.0025,332.7464l18.03357-29.92175,44.153-73.2602c.04529-.07507.103-.13824.15161-.2102.07959-.1178.15967-.23413.24891-.34479.08361-.10352.173-.19922.26367-.29492.09387-.09912.18823-.19635.29016-.28772.09912-.08862.20264-.16937.30774-.24933.10876-.083.21789-.16364.33386-.23773.1106-.07062.22485-.13288.34045-.19446.12171-.065.24353-.1283.37171-.18341.12317-.053.24914-.09607.37622-.139.08765-.02966.16907-.07068.259-.0957.04431-.01221.08911-.01428.13343-.02521.13439-.03345.27087-.05481.40808-.077.13134-.02117.26172-.04418.39294-.05481.13294-.01086.26648-.009.40076-.00921.13916-.00006.27759-.00165.41528.0097.12341.01014.24622.032.36975.05158.14758.02337.29407.04687.43848.08319.03992.01.0802.01178.12.02276.08008.02228.15223.05921.23047.08515.14282.0473.28418.09607.42212.156.11231.04883.219.10462.32642.16108.13159.06891.26086.13977.386.22039.10083.06507.19605.13575.29151.20759.11914.08941.23547.18066.3468.28106.09.08118.1731.16736.25671.25464.10083.10523.19947.21143.29175.32642.08154.1015.1543.20819.22778.31573.05274.07758.115.14606.16382.2273L414.909,302.82605l18.03333,29.92139,65.774,109.1344c.03344.0556.05444.11554.08557.172.06677.12085.12756.244.1842.3703.047.1048.093.20893.13233.3158.04626.12561.083.25439.11914.384.03051.10938.06457.21735.0874.32794.02856.13758.04321.27875.06018.41962.01233.10382.03259.20673.03845.31091l.00171.01392a5.00625,5.00625,0,0,1-.012.69989c-.00769.08734-.02808.17273-.04028.25958-.02186.15582-.04346.31134-.07972.46338-.02453.10333-.05969.20343-.09094.30518-.04053.13244-.08179.264-.13306.39227-.04126.10315-.08911.20306-.13732.30371-.05921.12366-.12244.24451-.19166.36292-.05517.09429-.11218.18676-.17395.27795-.08447.12476-.17651.24341-.27221.36041-.04431.0542-.07886.11383-.12573.16651-.01587.01776-.03589.02954-.052.04705a4.97822,4.97822,0,0,1-.6831.61835c-.05921.04456-.12049.08338-.1814.125-.09216.06323-.17871.13263-.27588.19006l-94.89306,56.09107-26.11353,15.43555-6.95337,4.1101c-.012.00708-.0249.0116-.03686.01856-.01026.006-.01929.01367-.02954.01953-.09705.05542-.1991.09717-.29883.14551-.08863.043-.17517.09192-.26563.12939-.12634.05225-.2561.09107-.38525.13257-.07935.02551-.157.05774-.23731.0791-.14746.03943-.29748.06433-.44726.09-.06482.01111-.12842.02917-.19336.03772a4.93627,4.93627,0,0,1-1.29981,0c-.06445-.00855-.12768-.02649-.19189-.03748-.15027-.02576-.30078-.05066-.44873-.09021-.08008-.02124-.15747-.05347-.23657-.07886-.1294-.04162-.25952-.08044-.386-.13281-.09009-.03735-.17627-.08606-.2644-.1289-.1001-.04859-.20264-.09034-.3-.146-.01026-.00586-.01929-.01355-.02954-.01953-.012-.007-.02491-.01148-.03687-.01856l-6.95312-4.10986-26.11353-15.43579-94.89331-56.09107c-.09717-.05743-.18372-.12683-.27588-.19006-.06091-.04162-.12219-.08044-.1814-.125a4.97881,4.97881,0,0,1-.6831-.61835c-.01611-.01751-.03613-.02929-.052-.04705-.04688-.05262-.0813-.11219-.12561-.16632-.09583-.11719-.18811-.236-.27259-.361-.06152-.09088-.1184-.183-.17334-.2771-.06945-.11859-.13281-.23974-.19213-.36364-.04822-.10053-.09595-.20038-.13721-.30347-.05127-.12824-.09253-.25983-.13306-.39227-.03125-.10175-.0664-.20185-.09094-.30518-.03626-.152-.05786-.30756-.07971-.46338-.01221-.08685-.03272-.17218-.04029-.25952a5.0071,5.0071,0,0,1-.012-.7Zm-181.155,84.68225a154.25084,154.25084,0,0,1-3.8125-153.21875L185.73,118.72559l54.17749,101.469-85.62378,160.365c-37.10394,69.49292-38.05817,150.37231-3.433,219.95862A154.09411,154.09411,0,0,1,52.36578,528.86426Zm628.21387,0a154.09761,154.09761,0,0,1-98.48438,71.65356c34.62452-69.58691,33.67017-150.4657-3.43359-219.95825L493.03766,220.195l54.17773-101.46942L684.39215,375.64551A154.25323,154.25323,0,0,1,680.57965,528.86426Z" fill="#fff"/><polygon points="385.13 539.119 371.472 547.184 371.472 633.372 412.119 576.128 429.922 551.055 476.851 484.963 410.978 523.858 385.13 539.119" fill="#fff"/><polygon points="398.695 495.245 483.625 445.044 397.682 405.98 384.857 400.15 371.472 394.067 371.472 508.51 371.472 511.337 372.28 510.859 398.695 495.245" fill="#fff"/><polygon points="400.803 396.414 481.835 433.244 427.458 343.02 409.424 313.098 371.472 250.127 371.472 383.082 373.398 383.957 400.803 396.414" fill="#fff"/><polygon points="360.664 510.859 361.472 511.337 361.472 508.511 361.471 394.067 347.175 400.564 335.263 405.979 249.32 445.044 334.25 495.246 360.664 510.859" fill="#fff"/><polygon points="321.972 523.846 256.164 484.966 303.045 551.029 320.843 576.11 361.47 633.36 361.472 547.183 347.817 539.115 321.972 523.846" fill="#fff"/><polygon points="336.177 394.58 359.547 383.957 361.472 383.082 361.471 250.128 323.521 313.097 305.487 343.019 251.11 433.244 332.142 396.413 336.177 394.58" fill="#fff"/></svg>
