<svg xmlns="http://www.w3.org/2000/svg" viewBox="0 0 154.68432 157.8501"><path d="M115.88805,30.52c-8.15-3.11987-21.78,1.51-31.74,1.82007-2.03.1499-12.71.1499-14.74,0-9.96-.31006-23.59-4.93994-31.74-1.82007a32.80845,32.80845,0,0,0-19.77,22.77.35624.35624,0,0,1-.0199.09985c-3.69006,18.75,6.37988,41.25,30.29993,45.47022a160.31624,160.31624,0,0,0,28.6,2.18994,160.42691,160.42691,0,0,0,28.61-2.18994c23.91-4.22022,33.99-26.71,30.3-45.46v-.02C132.768,42.2,125.19811,34.09009,115.88805,30.52Zm-77.23,43.7A1.00182,1.00182,0,0,1,37.478,75c-.04992-.01-4.75-.91992-7.56994,2a1.02625,1.02625,0,0,1-.72.31006,1.05547,1.05547,0,0,1-.70008-.28.99913.99913,0,0,1-.02-1.41992c3.59009-3.73,9.17005-2.62012,9.41016-2.57007A1.00186,1.00186,0,0,1,38.65807,74.22Zm-.02991-4.78a.98841.98841,0,0,1-1.25.65015C35.53807,69.51,30.228,68.36011,27.738,69.98a.97056.97056,0,0,1-.53991.15991,1.00084,1.00084,0,0,1-.55-1.83984c3.79-2.46,11.02-.21,11.32995-.11011A.98432.98432,0,0,1,38.62816,69.43994Zm3.3999-2.63989a1.02953,1.02953,0,0,1-.84.43994,1.01688,1.01688,0,0,1-.55-.16992c-.04993-.03-4.83-3.2002-9.67-3.06006a1.0166,1.0166,0,0,1-1.01989-.98.98835.98835,0,0,1,.97-1.02c5.51-.16992,10.62,3.26,10.83,3.3999A1.01055,1.01055,0,0,1,42.02806,66.80005Zm17.08-7.08008a.11816.11816,0,0,1-.1-.01l-.01-.01c-1.63995-.81006-3.00006-1.56982-4.37994-2.15991-.3501-.13013-.67-.3-1-.45-.34009-.13013-.66016-.31006-.99-.47022l-1.02-.42993c-.36011-.09985-.72009-.16992-1.09009-.26a8.46394,8.46394,0,0,0-1.13-.09985c-.18994-.01-.38-.03-.58-.03l-.57007.05A11.2916,11.2916,0,0,0,47.0681,55.96l-1.17.25a22.66558,22.66558,0,0,0-2.34.74l-2.28,1.07007-.01.01a.1554.1554,0,0,1-.2-.07007.14937.14937,0,0,1,.04-.17993c.6499-.55,1.30994-1.10986,2-1.64014a25.50368,25.50368,0,0,1,2.27-1.33984,12.31375,12.31375,0,0,1,5.30994-1.26,8.77565,8.77565,0,0,1,5.46,1.41992,13.75141,13.75141,0,0,1,1.07995.92017A9.19384,9.19384,0,0,1,58.11809,56.97a6.34675,6.34675,0,0,1,1.13,2.57007A.165.165,0,0,1,59.10808,59.72Zm32.93,16.7002c-2.06,1.31982-8.72,4.82983-13.91-.73023a1.99518,1.99518,0,0,0-2.58-.11987,8.96913,8.96913,0,0,1-6.84,3.16992,14.08158,14.08158,0,0,1-7.18-2.31982.99868.99868,0,0,1,1.08-1.68018c6.98,4.47,10.94.6001,12.68-2.10986a3.28914,3.28914,0,0,0,.5-1.76026v-2.1997c0-.02.01-.04.01-.06006-2.61-.29-4.59-1.68994-4.59-3.37012,0-1.8999,2.5-3.42993,5.58-3.42993,3.07,0,5.57,1.53,5.57,3.42993,0,1.68018-1.98,3.08008-4.58,3.37012,0,.02.01.04.01.06006v2.1997a3.20379,3.20379,0,0,0,.5,1.76026c1.73,2.71,5.69,6.57983,12.68,2.10986a.9928.9928,0,0,1,1.38.3A1.00447,1.00447,0,0,1,92.03807,76.42017Zm15.64-20.21021-1.17-.25c-.39-.07983-.79-.07007-1.17-.10986l-.58-.05c-.19,0-.38.02-.57.03a8.31918,8.31918,0,0,0-1.13.09985c-.37.09009-.74.16016-1.09.26l-1.01995.42993c-.34.16016-.66.34009-.99006.47022-.32995.1499-.66.31982-1.00994.45-1.37006.59009-2.73005,1.34985-4.37006,2.15991l-.02.01a.16414.16414,0,0,1-.22-.07007.18.18,0,0,1-.01-.09985A6.19766,6.19766,0,0,1,95.44811,56.97a9.20457,9.20457,0,0,1,.88995-1.08984c.35-.32007.7-.63013,1.08-.92017a8.8051,8.8051,0,0,1,5.47-1.41992,12.271,12.271,0,0,1,5.3,1.26,22.94427,22.94427,0,0,1,2.26995,1.33984c.7.53028,1.36005,1.09009,2.01,1.64014a.14493.14493,0,0,1,.01.21.13863.13863,0,0,1-.17.04l-.02-.01-2.27-1.07007A24.3073,24.3073,0,0,0,107.67809,56.21Zm4.7,11.03a1.01177,1.01177,0,0,1-.83-.43994.99921.99921,0,0,1,.27-1.39014c.21-.13989,5.35-3.5498,10.83-3.3999a1.00319,1.00319,0,0,1,.98,1.02,1.03963,1.03963,0,0,1-1.03.98c-4.86-.16992-9.62,3.03-9.66,3.06006A1.04972,1.04972,0,0,1,112.3781,67.24Zm12.7,9.79a.99053.99053,0,0,1-1.41-.03c-2.82-2.91992-7.53-2.01-7.57-2a1.00121,1.00121,0,0,1-.41-1.96c.24-.05,5.82-1.15015,9.42,2.57007A1.00819,1.00819,0,0,1,125.07805,77.03Zm2.13-7.34009a1.00289,1.00289,0,0,1-1.38.29c-2.49-1.61987-7.8-.46-9.62994.11011a.99784.99784,0,1,1-.61005-1.90015c.31-.09985,7.54-2.34985,11.33.11011A1.00886,1.00886,0,0,1,127.20805,69.68994Z" fill="#fff"/><path d="M140.018,31.42993a29.96079,29.96079,0,0,0-7.17-11.52,69.83288,69.83288,0,0,0-28.77-16.7998,79.52877,79.52877,0,0,0-12.19-2.29A127.44457,127.44457,0,0,0,77.33806,0c-10.06,0-19.81,1.13989-26.72992,3.11011a69.80588,69.80588,0,0,0-28.78,16.7998,30.05922,30.05922,0,0,0-7.16,11.52C4.58812,60.49,2.59813,80.54.13805,108.40991a28.84651,28.84651,0,0,0,.65,9.72022,28.61885,28.61885,0,0,0,5.25,10.59985,29.038,29.038,0,0,0,6.66992,6.19019c12.61011,8.59985,23.2201,14.6499,32.43006,18.48,8.34,2.95,19.11,4.45,32.02,4.45h.36c12.92005,0,23.69-1.5,32.02-4.45,9.22-3.83008,19.83-9.88013,32.44-18.48a28.03869,28.03869,0,0,0,12.57-26.51026C152.08806,80.54,150.08806,60.49,140.018,31.42993ZM60.76445,11.23755c3.88043-4.12305,11.804-4.49487,14.81824-4.47876q1.20025.00622,2.40057,0c3.01422-.01611,10.93781.35571,14.81824,4.47876C97.652,16.39111,89.46672,17.907,89.46672,17.907l-7.94867.62354a60.59085,60.59085,0,0,1-9.47015,0L64.09923,17.907S55.91393,16.39111,60.76445,11.23755ZM27.3369,102.76538c-.25244.80029-.478,1.60181-.67773,2.377a42.65383,42.65383,0,0,0-1.32666,10.75318,57.25153,57.25153,0,0,0,.59936,9.44653c.85889,4.15283-1.3706,4.43286-1.3706,4.43286-1.55762.61328-3.09583-2.60083-3.6836-4.00659-.20642-.4939-.43677-.979-.67358-1.459A30.40666,30.40666,0,0,1,18.4868,102.0144s1.62036-5.10131,5.588-4.29467a5.8699,5.8699,0,0,1,1.30981.41967A3.82961,3.82961,0,0,1,27.3369,102.76538Zm25.61719,11.23706c-.30542.968-.57813,1.9375-.81983,2.87476a51.59181,51.59181,0,0,0-1.60449,13.00586,69.24735,69.24735,0,0,0,.72485,11.42529c1.03882,5.02246-1.65759,5.36133-1.65759,5.36133-1.88391.7417-3.74426-3.14575-4.45508-4.84595-.24987-.59741-.52844-1.18384-.81482-1.76465a36.77561,36.77561,0,0,1-2.0769-26.96509s1.95972-6.16967,6.75842-5.19384a7.069,7.069,0,0,1,1.58411.50756A4.63167,4.63167,0,0,1,52.95409,114.00244Zm29.14239,5.42529L80.051,149.65552a3.27549,3.27549,0,0,1-3.26794,3.0542h-.00007a3.27549,3.27549,0,0,1-3.26794-3.0542l-2.04559-30.22779a5.32569,5.32569,0,1,1,10.62707,0Zm27.14234,20.63135c-.28638.58081-.565,1.16724-.81482,1.76465-.71076,1.7002-2.57111,5.58765-4.45508,4.84595,0,0-2.69647-.33887-1.65765-5.36133a69.24687,69.24687,0,0,0,.72491-11.42529,51.58907,51.58907,0,0,0-1.60449-13.00586c-.2417-.93726-.51441-1.90674-.81983-2.87476a4.6318,4.6318,0,0,1,2.36121-5.59473,7.07113,7.07113,0,0,1,1.58423-.50756c4.7987-.97583,6.75848,5.19384,6.75848,5.19384A36.77615,36.77615,0,0,1,109.23882,140.05908Zm24.123-15.74975c-.23675.48-.46716.96508-.6737,1.459-.58765,1.40576-2.12586,4.61987-3.68354,4.00659,0,0-2.22943-.28-1.37054-4.43286a57.246,57.246,0,0,0,.59937-9.44653,42.65469,42.65469,0,0,0-1.3266-10.75318c-.19983-.77514-.4253-1.57666-.67786-2.377a3.82977,3.82977,0,0,1,1.95233-4.626,5.86982,5.86982,0,0,1,1.30982-.41967c3.96765-.80664,5.588,4.29467,5.588,4.29467A30.40666,30.40666,0,0,1,133.36186,124.30933ZM139.23808,65.22c-1.79,18.97-14.87,33.34009-33.33,36.6001-8.72,1.54-17.7,3.66992-29.12,3.66992a166.80989,166.80989,0,0,1-29.89-2.93994C28.4381,99.28,16.11815,84.18994,14.32811,65.22c-1.66-17.63989,6.16992-31.91992,21.1-37.58984,3.63-1.38013,7.02-2.66016,11.12-2.66016a51.8073,51.8073,0,0,1,9.09,1.18018,103.80525,103.80525,0,0,0,21.14,2.21,103.73077,103.73077,0,0,0,21.14-2.21c1.96-.41016,6.1-.87012,8.05-1.07007a14.52636,14.52636,0,0,1,2.64-.05,34.19764,34.19764,0,0,1,9.53,2.6001C133.0681,33.30005,140.89806,47.58008,139.23808,65.22Z" fill="#fff"/></svg>
