<svg width="38" height="64" viewBox="0 0 38 64" fill="none" xmlns="http://www.w3.org/2000/svg">
<path d="M36.3134 48.2192L34.8405 47.2606L21.4444 55.9226C20.6729 56.4252 19.7728 56.6824 18.8493 56.6824C17.9258 56.6824 17.0258 56.4135 16.2542 55.9226L2.85808 47.2606L1.38521 48.2192C-0.461735 49.4115 -0.461735 52.1118 1.38521 53.2924L17.2011 63.5207C17.7037 63.848 18.2765 64 18.8376 64C19.4104 64 19.9832 63.8363 20.4742 63.5207L36.3134 53.2924C38.1487 52.1001 38.1487 49.4115 36.3134 48.2192Z" fill="white"/>
<path d="M36.3134 39.1481L34.8405 38.1896L29.44 41.6847L27.8268 42.7368L21.4561 46.8515C20.6846 47.3542 19.7845 47.6113 18.861 47.6113C17.9375 47.6113 17.0374 47.3425 16.2659 46.8515L9.89516 42.7368L8.28201 41.6847L2.88146 38.1896L1.38521 39.1481C-0.461735 40.3405 -0.461735 43.0407 1.38521 44.2214L4.47123 46.232L17.2011 54.4614C17.7037 54.7887 18.2765 54.9406 18.8376 54.9406C19.4104 54.9406 19.9832 54.777 20.4742 54.4614L33.204 46.232L36.29 44.2214C38.1487 43.029 38.1487 40.3288 36.3134 39.1481Z" fill="white"/>
<path d="M1.38521 35.1503L4.47123 37.1609L9.87178 40.6561L11.4849 41.7081L17.1894 45.402C17.6921 45.7293 18.2648 45.8813 18.8259 45.8813C19.3987 45.8813 19.9715 45.7176 20.4625 45.402L26.1669 41.7081L27.7801 40.6561L33.1806 37.1609L36.2667 35.1503C38.1136 33.958 38.1136 31.2577 36.2667 30.0771L22.2159 20.9593V31.4214C22.2159 31.7954 21.912 32.0994 21.5379 32.0994C21.1638 32.0994 20.8599 31.7954 20.8599 31.4214V6.8968L28.2009 14.2495C28.5984 14.6469 29.1127 14.8457 29.627 14.8457C30.1414 14.8457 30.6674 14.6469 31.0532 14.2495C31.4506 13.8521 31.6493 13.3377 31.6493 12.8234C31.6493 12.309 31.4506 11.783 31.0532 11.3973L20.2754 0.584475C19.9131 0.2221 19.4572 0.0350685 18.9896 0C18.9428 0 18.8961 0 18.8493 0C18.7675 0 18.6857 0 18.5921 0.0116895C18.2064 0.0584475 17.8323 0.2221 17.5284 0.490959C17.4816 0.526027 17.4466 0.561096 17.4115 0.607854L6.65717 11.3388C5.87397 12.122 5.82721 13.4546 6.61041 14.2378C7.00785 14.6353 7.52219 14.834 8.04822 14.834C8.56256 14.834 9.08858 14.6353 9.47434 14.2378L16.8153 6.88511V31.4097C16.8153 31.7837 16.5114 32.0877 16.1374 32.0877C15.7633 32.0877 15.4594 31.7837 15.4594 31.4097V20.9476L1.38521 30.0654C-0.450046 31.2577 -0.450046 33.958 1.38521 35.1503Z" fill="white"/>
</svg>
