<svg width="64" height="56" viewBox="0 0 64 56" fill="none" xmlns="http://www.w3.org/2000/svg">
<path d="M8.0443 43.9359C7.09141 43.9359 6.13852 43.751 5.2283 43.367C2.46918 42.2292 0.691406 39.5697 0.691406 36.583V16.3021C0.691406 13.7137 2.78207 11.623 5.37052 11.623C7.95896 11.623 10.0496 13.7137 10.0496 16.3021V31.7332L39.8594 1.92344C41.6798 0.102994 44.6523 0.102994 46.4727 1.92344C48.2932 3.74388 48.2932 6.71633 46.4727 8.53677L13.2354 41.7741C11.8274 43.1963 9.9643 43.9359 8.0443 43.9359Z" fill="white"/>
<path d="M22.2239 55.4417C21.0292 55.4417 19.8345 54.9866 18.9101 54.0763C17.0897 52.2559 17.0897 49.2835 18.9101 47.463L52.1474 14.2115C54.2523 12.1066 57.3954 11.4808 60.1545 12.6186C62.9136 13.7563 64.6914 16.4301 64.6914 19.4168V39.6977C64.6914 42.2861 62.6008 44.3768 60.0123 44.3768C57.4239 44.3768 55.3332 42.2861 55.3332 39.6977V24.2523L25.5234 54.0621C24.6132 54.9866 23.4185 55.4417 22.2239 55.4417Z" fill="white"/>
</svg>
