<svg xmlns="http://www.w3.org/2000/svg" viewBox="0 0 333.21287 280.72387" fill="#fff"><path d="M311.82667,1.096l-304.75,118.76a11.11155,11.11155,0,0,0,.88995,21.01l77.44,22.87,28.9,91.7a13.30082,13.30082,0,0,0,22.19,5.31l40.03-40.87994,78.56,57.67a16.39928,16.39928,0,0,0,25.75-9.86l52.03-248.76A15.67881,15.67881,0,0,0,311.82667,1.096Zm-38.2,55.21-141.56,125.17a7.62539,7.62539,0,0,0-2.52,4.85l-5.45,48.45a1.46729,1.46729,0,0,1-2.86.27l-22.42-72.25a7.6027,7.6027,0,0,1,3.25-8.72l167.16-103.68A3.69776,3.69776,0,0,1,273.62666,56.306Z"/></svg>
